<svg width="349" height="44" viewBox="0 0 349 44" fill="none" xmlns="http://www.w3.org/2000/svg">
<path d="M27.9672 0H15.5383V12.4895H27.9672V0Z" fill="#686767"/>
<path d="M12.4289 2.413e-06H0V12.4895H12.4289V2.413e-06Z" fill="#686767"/>
<path d="M43.5012 0H31.0723V12.4895H43.5012V0Z" fill="#686767"/>
<path d="M27.9672 15.5383H15.5383V28.0278H27.9672V15.5383Z" fill="#686767"/>
<path d="M59.0395 15.5383H46.6106V28.0278H59.0395V15.5383Z" fill="#686767"/>
<path d="M46.6106 43.5618V31.0723H59.0395L46.6106 43.5618Z" fill="#686767"/>
<path d="M27.9672 31.0723H15.5383V43.5618H27.9672V31.0723Z" fill="#686767"/>
<path d="M43.5012 31.0723H31.0723V43.5618H43.5012V31.0723Z" fill="#686767"/>
<path d="M59.0395 12.4895H46.6106V0L59.0395 12.4895Z" fill="#686767"/>
<path d="M89.9431 11.4991H72.6058V13.7176H80.1652V28.5943H82.3794V13.7176H89.9431V11.4991Z" fill="#686767"/>
<path d="M108.885 13.8171V11.4991H93.139V11.577H93.1001V28.4646H93.1347V28.5943H108.885V26.3109H95.4181V21.1084H103.821V18.7861H95.4181V13.8171H108.885Z" fill="#686767"/>
<path d="M116.821 28.5943L116.038 28.2743L114.935 27.1715L114.611 26.3887V13.5706L114.991 12.7403L116.094 11.7716L116.821 11.4991H129.085L129.872 11.8235L130.906 12.8571L131.226 13.6398V15.9794H131.23H129.02L129.016 14.0939L128.631 13.7133H117.231L116.821 14.0679V25.9303L117.279 26.3844H128.631L129.02 25.9952V22.8728H131.226V26.4579L130.906 27.2364L129.872 28.2743L129.085 28.5943H116.821Z" fill="#686767"/>
<path d="M153.005 11.4991V18.9331H139.451V11.5683H137.224V28.5294H139.451V21.1646H153.005V28.5943H155.227V11.4991H153.005Z" fill="#686767"/>
<path d="M202.305 28.5943H188.86C187.571 28.5943 186.52 27.5477 186.52 26.259V13.8387C186.52 12.55 187.571 11.4991 188.86 11.4991H202.305C203.594 11.4991 204.64 12.55 204.64 13.8387V26.259C204.645 27.5477 203.594 28.5943 202.305 28.5943ZM188.864 13.6917L188.717 26.259L202.309 26.4017C202.387 26.4017 202.452 26.3368 202.452 26.259V13.8387L188.864 13.6917Z" fill="#686767"/>
<path d="M177.949 11.4991V25.8741L165.689 11.5943L165.606 11.4991H161.394V28.5943H163.656V13.3284H164.214L177.253 28.4991L177.335 28.5943H180.211V11.4991H177.949Z" fill="#686767"/>
<path d="M349 11.499H331.131V13.7132H338.924V28.5942H341.203V13.7132H349V11.499Z" fill="#AD001B"/>
<path d="M304.906 28.5942H291.05C289.718 28.5942 288.637 27.5476 288.637 26.2589V13.8386C288.637 12.5499 289.718 11.499 291.05 11.499H304.906C306.238 11.499 307.319 12.5499 307.319 13.8386V26.2589C307.319 27.5476 306.238 28.5942 304.906 28.5942ZM291.05 13.6916L290.899 26.2589L304.906 26.4016C304.988 26.4016 305.058 26.3367 305.058 26.2589V13.8386L291.05 13.6916Z" fill="#AD001B"/>
<path d="M253.755 11.6461L253.677 11.499H250.632L241.49 28.5942H244.089L246.278 24.4426H257.937L260.125 28.5942H262.819L253.755 11.6461ZM256.734 22.2327H247.523L252.129 13.5532L256.734 22.2327Z" fill="#AD001B"/>
<path d="M237.036 11.499H234.727V28.5942H237.036V11.499Z" fill="#AD001B"/>
<path d="M211.452 28.5942C211.132 28.5942 210.837 28.4688 210.621 28.2482C210.401 28.0277 210.28 27.7336 210.28 27.4179L210.405 12.658C210.409 12.0137 210.933 11.499 211.577 11.499H222.972L223.323 11.5596C223.4 11.6417 227.241 12.6191 228.443 15.9923C228.862 17.3329 229.018 18.6346 229.014 19.8412C229.014 21.5408 228.72 23.05 228.473 24.1874C227.522 27.2838 223.448 28.3607 223.387 28.5163L222.972 28.5942H211.452ZM212.624 26.2589H222.734C223.046 26.1248 223.699 25.8394 224.378 25.4329C225.342 24.8967 226.173 24.0361 226.186 23.6901C226.423 22.596 226.679 21.2683 226.679 19.8412C226.679 18.8292 226.553 17.7697 226.211 16.6972C225.961 15.8539 225.113 15.0711 224.235 14.5479C223.608 14.1673 223.042 13.9338 222.773 13.8386H212.732L212.624 26.2589Z" fill="#AD001B"/>
<path d="M267.611 28.5942C267.3 28.5942 267.01 28.4817 266.789 28.2655C266.569 28.0579 266.452 27.7725 266.452 27.4698V24.6501H268.77V26.3454H280.844V21.0564H267.611C267.3 21.0564 267.01 20.944 266.789 20.7277C266.569 20.5158 266.452 20.2304 266.452 19.932V12.6234C266.452 12.325 266.573 12.0353 266.789 11.8234C267.005 11.6158 267.304 11.499 267.611 11.499H282.008C282.319 11.499 282.609 11.6158 282.829 11.8277C283.05 12.0396 283.167 12.3164 283.167 12.6234L283.171 14.9803H280.849V13.7478H268.766V18.8033H282.008C282.319 18.8033 282.609 18.9244 282.829 19.1363C283.05 19.3482 283.167 19.6293 283.167 19.9363V27.4741C283.167 27.7768 283.045 28.0536 282.829 28.2698C282.609 28.4861 282.319 28.5985 282.008 28.5985H267.611" fill="#AD001B"/>
<path d="M328.16 13.8343V11.499H312.704V28.5942H315.017V21.2899H322.603V18.9503H315.017V13.8343H328.16Z" fill="#AD001B"/>
</svg>
