<svg width="51" height="51" viewBox="0 0 51 51" fill="none" xmlns="http://www.w3.org/2000/svg">
<g clip-path="url(#clip0_1_731)">
<path d="M9.56227 49.9375H37.1864C38.3603 49.9375 39.3116 48.9862 39.3116 47.8127V3.18892C39.3116 2.01543 38.3603 1.06372 37.1864 1.06372H3.18744C2.01394 1.06372 1.06262 2.01543 1.06262 3.18892V41.4379L9.56227 49.9375Z" fill="white"/>
<path d="M9.56226 41.4377V49.9374L1.06262 41.4377H9.56226Z" fill="#F891A1"/>
<path d="M5.31226 29.7504H10.6249V35.063H5.31226V29.7504Z" fill="#F891A1"/>
<path d="M49.9361 8.61784L47.0249 11.5399L42.6476 7.16226L45.5693 4.2511L49.9361 8.61784Z" fill="white"/>
<path d="M28.0813 26.1063L25.8923 23.9177L42.6476 7.16235L47.0249 11.54L30.2699 28.2949L28.0813 26.1063Z" fill="#F891A1"/>
<path d="M30.2699 28.2947L24.4367 29.7503L25.8923 23.9175L28.0813 26.1061L30.2699 28.2947Z" fill="white"/>
<path d="M5.31226 19.1259H10.6249V24.4381H5.31226V19.1259Z" fill="#F891A1"/>
<path d="M5.31226 8.5011H10.6249V13.8133H5.31226V8.5011Z" fill="#F891A1"/>
<path d="M38.249 47.8137C38.249 48.4004 37.7731 48.8759 37.1864 48.8759H10.6248V41.4388C10.6248 40.8521 10.149 40.3762 9.56224 40.3762H2.12481V3.18986C2.12481 2.60311 2.60067 2.12725 3.18741 2.12725H37.1864C37.7731 2.12725 38.249 2.60311 38.249 3.18986V6.37727H40.3738V3.18986C40.3738 1.42923 38.947 0.00244141 37.1864 0.00244141H3.18741C1.42718 0.00244141 0 1.42923 0 3.18986V41.4388C0 41.7205 0.112058 41.9906 0.311271 42.1898L8.81091 50.6898C9.01013 50.889 9.28054 51.0011 9.56224 51.0011H37.1864C38.947 51.0011 40.3738 49.5739 40.3738 47.8137V23.3766H38.249V47.8137ZM8.49964 47.3736L3.62708 42.501H8.49964V47.3736Z" fill="black"/>
<path d="M50.6874 7.86394L46.3237 3.50031C45.909 3.08632 45.2374 3.08632 44.8226 3.50031L25.1414 23.1633C25.0048 23.2995 24.9075 23.4703 24.8608 23.6574L23.606 28.6884H13.8123V30.8132H24.4367C24.5235 30.8132 24.6099 30.8027 24.6939 30.7824L30.5271 29.3268C30.7139 29.2798 30.8847 29.1829 31.0209 29.0463L50.6885 9.36816C50.8881 9.16894 51.0002 8.89814 51.0002 8.61566C50.9998 8.33357 50.8874 8.06315 50.6874 7.86394ZM29.5836 26.1064L43.3955 12.2945L41.8932 10.7918L28.0813 24.6041L27.395 23.9177L42.6507 8.66935L45.5195 11.5377L30.2699 26.7927L29.5836 26.1064ZM26.4681 26.0001L28.1918 27.7234L25.8958 28.2962L26.4681 26.0001ZM47.0206 10.0343L44.1522 7.16592L45.5673 5.75158L48.4361 8.62033L47.0206 10.0343Z" fill="black"/>
<path d="M13.8123 23.3757H22.3119V25.5009H13.8123V23.3757Z" fill="black"/>
<path d="M13.8123 18.0634H26.5619V20.1882H13.8123V18.0634Z" fill="black"/>
<path d="M13.8123 12.7511H30.8115V14.8759H13.8123V12.7511Z" fill="black"/>
<path d="M13.8123 7.43848H35.0616V9.56368H13.8123V7.43848Z" fill="black"/>
<path d="M13.8123 34.0005H35.0616V36.1253H13.8123V34.0005Z" fill="black"/>
<path d="M13.8123 39.3127H35.0616V41.4379H13.8123V39.3127Z" fill="black"/>
<path d="M11.687 8.50108C11.687 7.91433 11.2116 7.43848 10.6248 7.43848H5.31221C4.72547 7.43848 4.25 7.91433 4.25 8.50108V13.8133C4.25 14.4004 4.72547 14.8759 5.31221 14.8759H10.6248C11.2116 14.8759 11.687 14.4004 11.687 13.8133V8.50108ZM9.56223 12.7511H6.37481V9.56368H9.56223V12.7511Z" fill="black"/>
<path d="M11.687 19.126C11.687 18.5392 11.2116 18.0634 10.6248 18.0634H5.31221C4.72547 18.0634 4.25 18.5392 4.25 19.126V24.4382C4.25 25.0249 4.72547 25.5008 5.31221 25.5008H10.6248C11.2116 25.5008 11.687 25.0249 11.687 24.4382V19.126ZM9.56223 23.3756H6.37481V20.1882H9.56223V23.3756Z" fill="black"/>
<path d="M10.6248 28.6882H5.31221C4.72547 28.6882 4.25 29.1637 4.25 29.7504V35.0631C4.25 35.6498 4.72547 36.1253 5.31221 36.1253H10.6248C11.2116 36.1253 11.687 35.6498 11.687 35.0631V29.7504C11.687 29.1637 11.2116 28.6882 10.6248 28.6882ZM9.56223 34.0005H6.37481V30.813H9.56223V34.0005Z" fill="black"/>
</g>
<defs>
<clipPath id="clip0_1_731">
<rect width="51" height="51" fill="white"/>
</clipPath>
</defs>
</svg>
