<svg width="45" height="45" viewBox="0 0 45 45" fill="none" xmlns="http://www.w3.org/2000/svg">
<g clip-path="url(#clip0_1_715)">
<path d="M44.0624 17.8126L38.4374 22.2188V12.1876L44.0624 17.8126Z" fill="white"/>
<path d="M6.56262 12.1876V22.2188L0.937622 17.8126L6.56262 12.1876Z" fill="white"/>
<path d="M14.0625 0.937622V8.43751H6.56262L14.0625 0.937622Z" fill="#F891A1"/>
<path d="M29.3345 29.3345L22.5 34.6876L15.6655 29.3345L6.56262 22.2188V8.43751H14.0625V0.937622H36.5625C37.5966 0.940712 38.4343 1.77842 38.4374 2.81251V22.2188L29.3345 29.3345Z" fill="white"/>
<path d="M38.4374 22.2188L44.0624 17.8126V42.1875C44.0593 43.2216 43.2216 44.0593 42.1875 44.0624H2.81251C1.77842 44.0593 0.940712 43.2216 0.937622 42.1875V17.8126L6.56262 22.2188L15.6655 29.3345L22.5 34.6876L29.3345 29.3345L38.4374 22.2188Z" fill="#F891A1"/>
<path d="M44.7188 17.1562L39.375 11.7993V2.8125C39.375 1.25931 38.1157 0 36.5625 0H14.0625C13.8139 0 13.5753 0.098877 13.3995 0.274658L5.89966 7.77454C5.72388 7.95033 5.625 8.18893 5.625 8.4375V11.7993L0.274658 17.1497C0.098877 17.3254 0 17.564 0 17.8126V42.1875C0 43.7407 1.25931 45 2.8125 45H42.1875C43.7407 45 45 43.7407 45 42.1875V17.8126C44.9966 17.5651 44.8953 17.3292 44.7188 17.1562ZM42.6479 17.7299L39.375 20.2904V14.4505L42.6479 17.7299ZM37.5001 2.8125V21.7574L22.5 33.497L7.49989 21.7574V9.37511H14.0625C14.5802 9.37511 15.0001 8.95523 15.0001 8.4375V1.87489H36.5625C37.0802 1.87489 37.5001 2.29477 37.5001 2.8125ZM8.82545 7.49989L13.1249 3.20045V7.49989H8.82545ZM5.625 20.2904L2.34936 17.7271L5.625 14.4505V20.2904ZM43.1251 42.1875C43.1251 42.7052 42.7052 43.1251 42.1875 43.1251H2.8125C2.29477 43.1251 1.87489 42.7052 1.87489 42.1875V19.738L14.25 29.4224L4.02477 39.6497L5.35034 40.9752L15.7386 30.587L21.9215 35.4254C22.261 35.6915 22.739 35.6915 23.0785 35.4254L29.2614 30.587L39.6497 40.9752L40.9752 39.6497L30.75 29.4224L43.1251 19.738V42.1875Z" fill="black"/>
<path d="M16.875 11.25H31.8751V13.1249H16.875V11.25Z" fill="black"/>
<path d="M13.1249 15.9374H31.8751V17.8126H13.1249V15.9374Z" fill="black"/>
<path d="M13.1249 20.6251H28.125V22.5H13.1249V20.6251Z" fill="black"/>
<path d="M33.75 6.56262V8.43751H35.6249V6.56262C35.6249 5.00909 34.3659 3.75012 32.8124 3.75012H30.9375V5.62501H32.8124C33.3301 5.62501 33.75 6.04489 33.75 6.56262Z" fill="black"/>
<path d="M27.1874 3.75012H29.0626V5.62501H27.1874V3.75012Z" fill="black"/>
<path d="M29.9999 20.6251H31.8751V22.5H29.9999V20.6251Z" fill="black"/>
</g>
<defs>
<clipPath id="clip0_1_715">
<rect width="45" height="45" fill="white"/>
</clipPath>
</defs>
</svg>
