<svg width="59" height="59" viewBox="0 0 59 59" fill="none" xmlns="http://www.w3.org/2000/svg">
<g clip-path="url(#clip0_1_667)">
<path d="M54.8239 34.5434L51.5695 37.7978L35.9534 22.1817L42.4617 15.6733L58.0778 31.2894L54.8239 34.5434Z" fill="white"/>
<path d="M19.7936 18.9273L23.0475 22.1817L7.43141 37.7978L4.17748 34.5434L0.923096 31.2894L16.5392 15.6733L19.7936 18.9273Z" fill="white"/>
<path d="M31.3441 52.5474L25.813 58.0785L23.0475 55.313L28.5786 49.7819L31.3441 52.5474Z" fill="#F891A1"/>
<path d="M20.282 52.5476L25.8126 47.017L28.5786 49.7825L23.0475 55.3136L20.282 52.5476Z" fill="#F891A1"/>
<path d="M17.5164 49.7822L23.0475 44.2516L25.8135 47.0171L20.2824 52.5482L17.5164 49.7822Z" fill="#F891A1"/>
<path d="M23.0475 44.2507L17.5164 49.7818L14.7509 47.0162L20.282 41.4851L23.0475 44.2507Z" fill="#F891A1"/>
<path d="M35.0315 34.1104L33.1878 35.9541C30.4222 38.7196 28.5785 35.9541 28.5785 35.9541L23.9693 40.5633L21.2037 37.7978L34.1096 24.8918H38.6635L48.8593 35.0876V38.7196L44.25 43.3289L35.0315 34.1104Z" fill="white"/>
<path d="M42.4064 47.0163L31.3442 58.0785L28.5786 55.3129L31.3442 52.5474L20.282 41.4851L16.5946 45.1726L10.1416 38.7196V35.0876L20.3373 24.8918H25.8131L29.9614 29.0402L21.2038 37.7977L23.9694 40.5633L28.5786 35.954C28.5786 35.954 30.4223 38.7196 33.1879 35.954L35.0316 34.1103L45.1719 44.2507L42.4064 47.0163Z" fill="white"/>
<path d="M18.4382 6.45488L16.5945 9.22043L17.5164 12.9078L13.829 11.0641L10.1416 12.9078L11.0634 9.22043L9.21973 6.45488H11.9853L13.829 3.68933L15.6727 6.45488H18.4382Z" fill="#F891A1"/>
<path d="M49.7811 6.45488L47.9374 9.22043L48.8593 12.9078L45.1719 11.0641L41.4845 12.9078L42.4063 9.22043L40.5626 6.45488H43.3282L45.1719 3.68933L47.0156 6.45488H49.7811Z" fill="#F891A1"/>
<path d="M36.8752 5.53271L32.266 8.29826L35.0315 13.8294L29.5004 10.142L23.9693 13.8294L26.7349 8.29826L22.1256 5.53271H27.6567L29.5004 0.923462L31.3441 5.53271H36.8752Z" fill="white"/>
<path d="M35.9534 22.1815L51.5695 37.7976L54.8238 34.5432L39.2078 18.9271L35.9534 22.1815Z" fill="#F891A1"/>
<path d="M39.1006 32.6482C38.3809 31.9285 37.2137 31.9285 36.4935 32.6482L35.0315 34.1102L44.25 43.3287L47.0156 40.5632L39.1006 32.6482Z" fill="#F891A1"/>
<path d="M29.9614 51.1643L24.4303 56.6954L25.8131 58.0782L31.3442 52.5471L29.9614 51.1643Z" fill="#F891A1"/>
<path d="M21.6648 53.9299L27.1959 48.3993L28.5782 49.7816L23.0476 55.3127L21.6648 53.9299Z" fill="#F891A1"/>
<path d="M18.8987 51.1646L24.4293 45.6339L25.8121 47.0162L20.281 52.5473L18.8987 51.1646Z" fill="#F891A1"/>
<path d="M16.1337 48.3987L21.6643 42.868L23.0471 44.2504L17.516 49.7815L16.1337 48.3987Z" fill="#F891A1"/>
<path d="M19.7936 18.9271L4.17749 34.5432L7.43142 37.7976L23.0475 22.1815L19.7936 18.9271Z" fill="#F891A1"/>
<path d="M58.7296 30.6375L43.1135 15.0214C42.7534 14.6613 42.1701 14.6613 41.81 15.0214L35.3016 21.5297C34.942 21.8898 34.942 22.4732 35.3016 22.8333L36.4387 23.9698H34.1097C33.8653 23.9698 33.6308 24.0671 33.4579 24.2399L29.9614 27.7365L26.4648 24.2399C26.292 24.0671 26.0575 23.9698 25.8131 23.9698H22.5627L23.6993 22.8333C24.0594 22.4732 24.0594 21.8898 23.6993 21.5297L20.4454 18.2754L17.191 15.0214C16.8313 14.6613 16.2475 14.6613 15.8874 15.0214L0.271323 30.6375C-0.088325 30.9976 -0.088325 31.581 0.271323 31.9411L6.77964 38.4494C7.13974 38.809 7.7231 38.809 8.0832 38.4494L9.21975 37.3128V38.7195C9.21975 38.9639 9.31698 39.1984 9.48983 39.3712L15.291 45.1724L14.0991 46.3643C13.7394 46.7244 13.7394 47.3078 14.0991 47.6679L25.1613 58.7301C25.5214 59.0897 26.1052 59.0897 26.4648 58.7301L28.5786 56.6163L30.6924 58.7301C31.0525 59.0897 31.6363 59.0897 31.9959 58.7301L45.8237 44.9023C46.1838 44.5422 46.1838 43.9589 45.8237 43.5988L45.5536 43.3287L49.5111 39.3712C49.6839 39.1984 49.7812 38.9639 49.7812 38.7195V37.3128L50.9177 38.4494C51.2778 38.809 51.8616 38.809 52.2213 38.4494L58.7296 31.9411C59.0897 31.581 59.0897 30.9976 58.7296 30.6375ZM7.43142 36.4941L5.48104 34.5432L8.94968 31.0746L7.64613 29.771L4.17748 33.2401L2.22665 31.2893L16.5392 16.9767L18.49 18.9271L9.48983 27.9273L10.7934 29.2309L19.7936 20.2307L21.744 22.1815L7.43142 36.4941ZM16.0544 47.0161L20.282 42.7886L21.744 44.2506L17.5164 48.4781L16.0544 47.0161ZM18.82 49.7817L23.0475 45.5541L24.5095 47.0161L20.282 51.2437L18.82 49.7817ZM21.5855 52.5472L25.8131 48.3197L27.2751 49.7817L23.0475 54.0092L21.5855 52.5472ZM25.8131 56.7748L24.3511 55.3128L28.5786 51.0852L30.0406 52.5472L25.8131 56.7748ZM42.4064 45.7126L38.4489 41.7551L37.1453 43.0586L41.1028 47.0161L38.719 49.4L34.7615 45.4425L33.4579 46.746L37.4154 50.7035L35.0316 53.0874L33.8396 51.8954L32.5361 53.199L33.728 54.3909L31.3442 56.7748L29.8822 55.3128L31.9959 53.199C32.356 52.8389 32.356 52.2555 31.9959 51.8954L20.9337 40.8332C20.5741 40.4731 19.9903 40.4731 19.6302 40.8332L16.5946 43.8689L11.0635 38.3378V35.4691L20.719 25.8135H25.4314L28.6578 29.04L20.552 37.1458C20.1924 37.5059 20.1924 38.0893 20.552 38.4494L23.3176 41.2149C23.6777 41.5746 24.2615 41.5746 24.6211 41.2149L28.562 37.2741C29.0963 37.7278 29.7534 38.0114 30.4502 38.0888C31.7484 38.1433 32.9988 37.596 33.8396 36.6057L35.0316 35.4138L43.8684 44.2506L42.4064 45.7126ZM47.9375 38.3378L44.2501 42.0252L36.3351 34.1102L37.527 32.9183L36.2235 31.6147L32.5361 35.3021C32.077 35.8837 31.3842 36.233 30.6438 36.2564C30.1221 36.1632 29.6567 35.8715 29.3456 35.4421C29.1926 35.2126 28.9441 35.0636 28.6695 35.0366C28.3945 35.0095 28.1222 35.1068 27.9268 35.3021L23.9694 39.2596L22.5074 37.7976L34.4914 25.8135H38.2824L47.9375 35.4691V38.3378ZM54.8239 33.2401L51.3548 29.771L50.0513 31.0746L53.5203 34.5432L51.5695 36.4941L37.257 22.1815L39.2078 20.2307L48.2076 29.2309L49.5111 27.9273L40.5114 18.9271L42.4617 16.9767L56.7743 31.2893L54.8239 33.2401Z" fill="black"/>
<path d="M21.6512 6.32287L25.5281 8.64955L23.1443 13.4172C22.957 13.7913 23.0452 14.2446 23.359 14.5214C23.6727 14.7982 24.1332 14.8288 24.4811 14.5966L29.5004 11.2486L34.5202 14.5948C34.8677 14.827 35.3286 14.7964 35.6424 14.5196C35.9561 14.2428 36.0439 13.7895 35.8566 13.4154L33.4728 8.64955L37.3501 6.32287C37.7053 6.10951 37.8741 5.68549 37.7633 5.28669C37.6526 4.88743 37.2894 4.61105 36.8752 4.61105H31.9685L30.357 0.580658C30.2175 0.230013 29.8781 0 29.5004 0C29.1232 0 28.7838 0.230013 28.6443 0.580658L27.0329 4.61105H22.1256C21.7115 4.61105 21.3483 4.88743 21.2375 5.28669C21.1273 5.68549 21.2961 6.10951 21.6512 6.32287ZM27.6567 6.45475C28.0339 6.4552 28.3729 6.22564 28.5133 5.8759L29.5004 3.40517L30.488 5.8759C30.628 6.22564 30.9674 6.4552 31.3441 6.45475H33.5475L31.7916 7.50849C31.3806 7.75606 31.2285 8.27685 31.4409 8.70671L32.6544 11.1333L30.0122 9.37155C29.7025 9.16494 29.2988 9.16494 28.9891 9.37155L26.3469 11.1333L27.5649 8.71032C27.7774 8.2809 27.6252 7.75966 27.2143 7.51209L25.4538 6.45475H27.6567Z" fill="black"/>
<path d="M10.07 9.3927L9.24762 12.6835C9.1576 13.0337 9.28003 13.4042 9.56136 13.6311C9.84268 13.8579 10.2307 13.8993 10.5539 13.7373L13.829 12.0948L17.1045 13.7373C17.2328 13.7994 17.3737 13.8309 17.5164 13.8296C17.8004 13.8296 18.0687 13.6986 18.2433 13.4749C18.418 13.2511 18.4796 12.959 18.4108 12.6835L17.5884 9.3927L19.2052 6.96654C19.3943 6.68341 19.4118 6.31972 19.2511 6.01993C19.0909 5.72015 18.7785 5.5329 18.4382 5.5329H16.166L14.5987 3.17741C14.4182 2.9357 14.1337 2.79346 13.8317 2.79346C13.5301 2.79346 13.2456 2.9357 13.0651 3.17741L11.4924 5.5329H9.21971C8.87987 5.5329 8.56749 5.72015 8.40679 6.01993C8.24655 6.31972 8.26411 6.68341 8.45271 6.96654L10.07 9.3927ZM11.9853 7.3766C12.2936 7.3766 12.5812 7.22266 12.7523 6.96654L13.829 5.34835L14.9057 6.96339C15.0763 7.22086 15.3643 7.37615 15.6727 7.3766H16.7156L15.8275 8.70851C15.683 8.92547 15.6367 9.1933 15.7006 9.44626L16.1354 11.1882L14.2413 10.2407C13.9816 10.1111 13.6764 10.1111 13.4171 10.2407L11.5243 11.1864L11.9596 9.44446C12.0235 9.1915 11.9772 8.92367 11.8322 8.70671L10.9428 7.3766H11.9853Z" fill="black"/>
<path d="M41.4129 9.3927L40.5905 12.6835C40.5005 13.0337 40.6229 13.4042 40.9043 13.6311C41.1856 13.8579 41.5736 13.8993 41.8968 13.7373L45.1719 12.0948L48.4474 13.7373C48.5757 13.7994 48.7166 13.8309 48.8593 13.8296C49.1433 13.8296 49.4116 13.6986 49.5862 13.4749C49.7609 13.2511 49.8225 12.959 49.7537 12.6835L48.9313 9.3927L50.5481 6.96654C50.7372 6.68341 50.7547 6.31972 50.594 6.01993C50.4338 5.72015 50.1214 5.5329 49.7811 5.5329H47.5089L45.9416 3.17741C45.7611 2.9357 45.4766 2.79346 45.1746 2.79346C44.873 2.79346 44.5885 2.9357 44.408 3.17741L42.8353 5.5329H40.5626C40.2228 5.5329 39.9104 5.72015 39.7497 6.01993C39.5894 6.31972 39.607 6.68341 39.7956 6.96654L41.4129 9.3927ZM43.3282 7.3766C43.6365 7.3766 43.9241 7.22266 44.0952 6.96654L45.1719 5.34835L46.2486 6.96339C46.4192 7.22086 46.7072 7.37615 47.0156 7.3766H48.0585L47.1704 8.70851C47.0259 8.92547 46.9796 9.1933 47.0435 9.44626L47.4783 11.1882L45.5842 10.2407C45.3245 10.1111 45.0193 10.1111 44.76 10.2407L42.8672 11.1864L43.3025 9.44446C43.3664 9.1915 43.3201 8.92367 43.1751 8.70671L42.2857 7.3766H43.3282Z" fill="black"/>
</g>
<defs>
<clipPath id="clip0_1_667">
<rect width="59" height="59" fill="white"/>
</clipPath>
</defs>
</svg>
