<svg width="56" height="56" viewBox="0 0 56 56" fill="none" xmlns="http://www.w3.org/2000/svg">
<g clip-path="url(#clip0_1_693)">
<path d="M0.875 11.37H55.125V30.62H0.875V11.37Z" fill="white"/>
<path d="M2.625 30.62H53.375V53.37H2.625V30.62Z" fill="white"/>
<path d="M48.4138 30.62C47.3829 34.7664 45.914 38.8718 42.6763 41.5443C38.9819 44.5944 33.7828 45.0519 29.016 44.5786C24.2488 44.1052 19.5405 42.8401 14.7532 42.967C10.4684 43.1024 6.29077 44.3414 2.625 46.564V53.37H53.375V30.62H48.4138Z" fill="#F891A1"/>
<path d="M50.75 11.37V26.245H5.25V11.37H0.875V30.62H55.125V11.37H50.75Z" fill="#F891A1"/>
<path d="M2.625 30.62H5.25V47.245H2.625V30.62Z" fill="#F891A1"/>
<path d="M50.75 30.62H53.375V47.245H50.75V30.62Z" fill="#F891A1"/>
<path d="M8.75 50.745H47.25V53.37H8.75V50.745Z" fill="#F891A1"/>
<path d="M31.5 37.62V39.37L29.75 41.12H26.25L24.5 39.37V37.62H31.5Z" fill="#F891A1"/>
<path d="M22.75 30.62H33.25V37.62H22.75V30.62Z" fill="white"/>
<path d="M21.875 6.53992V11.3699H18.375V7.38843C19.5251 7.04108 20.6937 6.75739 21.875 6.53992Z" fill="#F891A1"/>
<path d="M37.625 7.38843V11.3699H34.125V6.53992C35.3063 6.75739 36.4749 7.04108 37.625 7.38843Z" fill="#F891A1"/>
<path d="M37.625 7.38834C36.4749 7.04099 35.3063 6.75729 34.125 6.53983C30.0773 5.77847 25.9227 5.77847 21.875 6.53983C20.6937 6.75729 19.5251 7.04099 18.375 7.38834C17.8764 7.53702 17.3949 7.69467 16.9048 7.86984L15.75 4.71976C23.6767 1.91959 32.3233 1.91959 40.25 4.71976L39.0952 7.86984C38.6051 7.69467 38.1236 7.53702 37.625 7.38834Z" fill="white"/>
<path d="M53.375 47.245V53.37H47.25V49.87H49.875V47.245H53.375Z" fill="white"/>
<path d="M8.75 50.745V53.37H2.625V47.245H6.125V49.87H8.75V50.745Z" fill="white"/>
<path d="M55.125 10.4949H38.5V8.59492C38.5995 8.6291 38.7004 8.65816 38.7999 8.69319C38.8948 8.72737 38.9943 8.74489 39.0952 8.74489C39.4617 8.74446 39.7894 8.51588 39.9159 8.17152L41.0707 5.02144C41.1515 4.80226 41.1408 4.55916 41.0417 4.34767C40.9421 4.13576 40.7618 3.97255 40.5414 3.89479C32.425 1.03523 23.575 1.03523 15.4586 3.89479C15.2382 3.97255 15.0579 4.13533 14.9583 4.34682C14.8588 4.55873 14.8481 4.80098 14.9284 5.02058L16.0833 8.17067C16.2477 8.6227 16.7459 8.85683 17.1988 8.69575C17.2996 8.66072 17.4005 8.63209 17.5 8.59792V10.4949H0.875C0.391785 10.4949 0 10.8867 0 11.3699V30.6199C0 31.1031 0.391785 31.4949 0.875 31.4949H1.75V53.3699C1.75 53.8531 2.14178 54.2449 2.625 54.2449H53.375C53.8582 54.2449 54.25 53.8531 54.25 53.3699V31.4949H55.125C55.6082 31.4949 56 31.1031 56 30.6199V11.3699C56 10.8867 55.6082 10.4949 55.125 10.4949ZM35 10.4949V7.62123C35.5926 7.75069 36.1762 7.8968 36.75 8.05873V10.4949H35ZM22.75 7.28242C26.2265 6.70692 29.7735 6.70692 33.25 7.28242V10.4949H22.75V7.28242ZM16.8805 5.2607C24.1078 2.91383 31.8922 2.91383 39.1195 5.2607L38.5675 6.76631C38.3389 6.69197 38.1108 6.62105 37.8788 6.55183C36.7 6.19466 35.5024 5.90242 34.2912 5.67683C30.1375 4.89284 25.874 4.89284 21.7203 5.67683C20.507 5.90157 19.3073 6.1938 18.1263 6.55183C17.8939 6.62105 17.6645 6.69282 17.4359 6.76631L16.8805 5.2607ZM19.25 8.05702C19.8238 7.89595 20.4074 7.75026 21 7.61952V10.4949H19.25V8.05702ZM4.375 31.4949V46.3699H3.5V31.4949H4.375ZM22.75 38.4949H23.625V39.3699C23.625 39.6019 23.7173 39.8245 23.8813 39.9885L25.6313 41.7385C25.7954 41.9026 26.018 41.9949 26.25 41.9949H29.75C29.982 41.9949 30.2046 41.903 30.3687 41.7394L32.1187 39.9894C32.2831 39.8249 32.375 39.6023 32.375 39.3699V38.4949H33.25C33.7332 38.4949 34.125 38.1031 34.125 37.6199V31.4949H49.875V46.3699C49.3918 46.3699 49 46.7617 49 47.2449V48.9949H47.25C46.7668 48.9949 46.375 49.3867 46.375 49.8699H42.875V51.6199H46.375V52.4949H9.625V51.6199H37.625V49.8699H9.625C9.625 49.3867 9.23322 48.9949 8.75 48.9949H7V47.2449C7 46.7617 6.60822 46.3699 6.125 46.3699V31.4949H21.875V37.6199C21.875 38.1031 22.2668 38.4949 22.75 38.4949ZM25.375 38.4949H30.625V39.0076L29.3877 40.2449H26.6123L25.375 39.0076V38.4949ZM23.625 36.7449V31.4949H32.375V36.7449H23.625ZM3.5 48.1199H5.25V49.8699C5.25 50.3531 5.64178 50.7449 6.125 50.7449H7.875V52.4949H3.5V48.1199ZM48.125 52.4949V50.7449H49.875C50.3582 50.7449 50.75 50.3531 50.75 49.8699V48.1199H52.5V52.4949H48.125ZM52.5 46.3699H51.625V31.4949H52.5V46.3699ZM54.25 29.7449H1.75V12.2449H54.25V29.7449Z" fill="black"/>
<path d="M27.125 32.37H28.875V35.87H27.125V32.37Z" fill="black"/>
<path d="M39.375 49.87H41.125V51.62H39.375V49.87Z" fill="black"/>
<path d="M5.25 27.12H50.75C51.2332 27.12 51.625 26.7282 51.625 26.245V13.995H49.875V25.37H6.125V13.995H4.375V26.245C4.375 26.7282 4.76678 27.12 5.25 27.12Z" fill="black"/>
</g>
<defs>
<clipPath id="clip0_1_693">
<rect width="56" height="56" fill="white"/>
</clipPath>
</defs>
</svg>
