<svg width="60" height="60" viewBox="0 0 60 60" fill="none" xmlns="http://www.w3.org/2000/svg">
<rect y="-0.000488281" width="60" height="60" fill="#AD001B"/>
<path d="M0 0L27.6943 0L0 21L0 0Z" fill="white"/>
<path d="M42 26.9793C42 24.8653 40.1347 23 38.0207 23H21.9793C19.8653 23 18 24.8653 18 26.9793V43.0207C18 45.1347 19.8653 47 21.9793 47H30.0622V37.9223H27.0777V33.943H30.0622V32.3264C30.0622 29.5907 32.0518 27.228 34.5389 27.228H37.772V31.2072H34.5389C34.1658 31.2072 33.7927 31.5803 33.7927 32.3264V33.943H37.772V37.9223H33.7927V47H38.0207C40.1347 47 42 45.1347 42 43.0207V26.9793Z" fill="white"/>
</svg>
