<svg width="60" height="60" viewBox="0 0 60 60" fill="none" xmlns="http://www.w3.org/2000/svg">
<rect y="-0.000488281" width="60" height="60" fill="#AD001B"/>
<path d="M0 0L27.6943 0L0 21L0 0Z" fill="white"/>
<path d="M38.5846 23H21.4154C19.4769 23 18 24.4769 18 26.4154V43.5846C18 45.5231 19.4769 47 21.4154 47H38.5846C40.5231 47 42 45.5231 42 43.5846V26.4154C42 24.4769 40.5231 23 38.5846 23ZM30 42.2C33.9692 42.2 37.2 39.0615 37.2 35.2769C37.2 34.6308 37.1077 33.8923 36.9231 33.3385H38.9538V43.1231C38.9538 43.5846 38.5846 44.0462 38.0308 44.0462H21.9692C21.5077 44.0462 21.0462 43.6769 21.0462 43.1231V33.2462H23.1692C22.9846 33.8923 22.8923 34.5385 22.8923 35.1846C22.8 39.0615 26.0308 42.2 30 42.2ZM30 39.4308C27.4154 39.4308 25.3846 37.4 25.3846 34.9077C25.3846 32.4154 27.4154 30.3846 30 30.3846C32.5846 30.3846 34.6154 32.4154 34.6154 34.9077C34.6154 37.4923 32.5846 39.4308 30 39.4308ZM38.8615 29.5538C38.8615 30.1077 38.4 30.5692 37.8462 30.5692H35.2615C34.7077 30.5692 34.2462 30.1077 34.2462 29.5538V27.0615C34.2462 26.5077 34.7077 26.0462 35.2615 26.0462H37.8462C38.4 26.0462 38.8615 26.5077 38.8615 27.0615V29.5538Z" fill="white"/>
</svg>
