<svg width="60" height="60" viewBox="0 0 60 60" fill="none" xmlns="http://www.w3.org/2000/svg">
<rect y="-0.000488281" width="60" height="60" fill="#AD001B"/>
<path d="M0 0L27.6943 0L0 21L0 0Z" fill="white"/>
<path d="M42 27.3141C41.1429 27.6795 40.1633 27.9231 39.1837 28.0449C40.1633 27.4359 41.0204 26.4615 41.3878 25.3654C40.4082 25.9744 39.4286 26.3397 38.2041 26.5833C37.3469 25.609 36 25 34.6531 25C31.9592 25 29.7551 27.1923 29.7551 29.8718C29.7551 30.2372 29.7551 30.6026 29.8776 30.9679C25.8367 30.7243 22.1633 28.7756 19.7143 25.8526C19.3469 26.5833 19.102 27.4359 19.102 28.2885C19.102 29.9936 19.9592 31.4551 21.3061 32.3077C20.449 32.3077 19.7143 32.0641 19.102 31.6987C19.102 34.0128 20.8163 36.0833 23.0204 36.4487C22.6531 36.5705 22.1633 36.5705 21.6735 36.5705C21.3061 36.5705 21.0612 36.5705 20.6939 36.4487C21.3061 38.3974 23.1429 39.859 25.3469 39.859C23.6327 41.1987 21.551 41.9295 19.2245 41.9295C18.8571 41.9295 18.4898 41.9295 18 41.8077C20.2041 43.1474 22.7755 44 25.5918 44C34.6531 44 39.551 36.5705 39.551 30.1154V29.5064C40.5306 29.141 41.3878 28.2885 42 27.3141Z" fill="white"/>
</svg>
