<svg xmlns="http://www.w3.org/2000/svg" xmlns:xlink="http://www.w3.org/1999/xlink">
  <symbol id="logo" viewBox="0 0 349 44" preserveAspectRatio="xMidYMid">
    <g>
      <path d="M27.9672 0H15.5383V12.4895H27.9672V0Z" fill="#686767"/>
      <path d="M12.4289 2.413e-06H0V12.4895H12.4289V2.413e-06Z" fill="#686767"/>
      <path d="M43.5012 0H31.0723V12.4895H43.5012V0Z" fill="#686767"/>
      <path d="M27.9672 15.5383H15.5383V28.0278H27.9672V15.5383Z" fill="#686767"/>
      <path d="M59.0395 15.5383H46.6106V28.0278H59.0395V15.5383Z" fill="#686767"/>
      <path d="M46.6106 43.5618V31.0723H59.0395L46.6106 43.5618Z" fill="#686767"/>
      <path d="M27.9672 31.0723H15.5383V43.5618H27.9672V31.0723Z" fill="#686767"/>
      <path d="M43.5012 31.0723H31.0723V43.5618H43.5012V31.0723Z" fill="#686767"/>
      <path d="M59.0395 12.4895H46.6106V0L59.0395 12.4895Z" fill="#686767"/>
      <path d="M89.9431 11.4991H72.6058V13.7176H80.1652V28.5943H82.3794V13.7176H89.9431V11.4991Z" fill="#686767"/>
      <path d="M108.885 13.8171V11.4991H93.139V11.577H93.1001V28.4646H93.1347V28.5943H108.885V26.3109H95.4181V21.1084H103.821V18.7861H95.4181V13.8171H108.885Z" fill="#686767"/>
      <path d="M116.821 28.5943L116.038 28.2743L114.935 27.1715L114.611 26.3887V13.5706L114.991 12.7403L116.094 11.7716L116.821 11.4991H129.085L129.872 11.8235L130.906 12.8571L131.226 13.6398V15.9794H131.23H129.02L129.016 14.0939L128.631 13.7133H117.231L116.821 14.0679V25.9303L117.279 26.3844H128.631L129.02 25.9952V22.8728H131.226V26.4579L130.906 27.2364L129.872 28.2743L129.085 28.5943H116.821Z" fill="#686767"/>
      <path d="M153.005 11.4991V18.9331H139.451V11.5683H137.224V28.5294H139.451V21.1646H153.005V28.5943H155.227V11.4991H153.005Z" fill="#686767"/>
      <path d="M202.305 28.5943H188.86C187.571 28.5943 186.52 27.5477 186.52 26.259V13.8387C186.52 12.55 187.571 11.4991 188.86 11.4991H202.305C203.594 11.4991 204.64 12.55 204.64 13.8387V26.259C204.645 27.5477 203.594 28.5943 202.305 28.5943ZM188.864 13.6917L188.717 26.259L202.309 26.4017C202.387 26.4017 202.452 26.3368 202.452 26.259V13.8387L188.864 13.6917Z" fill="#686767"/>
      <path d="M177.949 11.4991V25.8741L165.689 11.5943L165.606 11.4991H161.394V28.5943H163.656V13.3284H164.214L177.253 28.4991L177.335 28.5943H180.211V11.4991H177.949Z" fill="#686767"/>
      <path d="M349 11.499H331.131V13.7132H338.924V28.5942H341.203V13.7132H349V11.499Z" fill="#AD001B"/>
      <path d="M304.906 28.5942H291.05C289.718 28.5942 288.637 27.5476 288.637 26.2589V13.8386C288.637 12.5499 289.718 11.499 291.05 11.499H304.906C306.238 11.499 307.319 12.5499 307.319 13.8386V26.2589C307.319 27.5476 306.238 28.5942 304.906 28.5942ZM291.05 13.6916L290.899 26.2589L304.906 26.4016C304.988 26.4016 305.058 26.3367 305.058 26.2589V13.8386L291.05 13.6916Z" fill="#AD001B"/>
      <path d="M253.755 11.6461L253.677 11.499H250.632L241.49 28.5942H244.089L246.278 24.4426H257.937L260.125 28.5942H262.819L253.755 11.6461ZM256.734 22.2327H247.523L252.129 13.5532L256.734 22.2327Z" fill="#AD001B"/>
      <path d="M237.036 11.499H234.727V28.5942H237.036V11.499Z" fill="#AD001B"/>
      <path d="M211.452 28.5942C211.132 28.5942 210.837 28.4688 210.621 28.2482C210.401 28.0277 210.28 27.7336 210.28 27.4179L210.405 12.658C210.409 12.0137 210.933 11.499 211.577 11.499H222.972L223.323 11.5596C223.4 11.6417 227.241 12.6191 228.443 15.9923C228.862 17.3329 229.018 18.6346 229.014 19.8412C229.014 21.5408 228.72 23.05 228.473 24.1874C227.522 27.2838 223.448 28.3607 223.387 28.5163L222.972 28.5942H211.452ZM212.624 26.2589H222.734C223.046 26.1248 223.699 25.8394 224.378 25.4329C225.342 24.8967 226.173 24.0361 226.186 23.6901C226.423 22.596 226.679 21.2683 226.679 19.8412C226.679 18.8292 226.553 17.7697 226.211 16.6972C225.961 15.8539 225.113 15.0711 224.235 14.5479C223.608 14.1673 223.042 13.9338 222.773 13.8386H212.732L212.624 26.2589Z" fill="#AD001B"/>
      <path d="M267.611 28.5942C267.3 28.5942 267.01 28.4817 266.789 28.2655C266.569 28.0579 266.452 27.7725 266.452 27.4698V24.6501H268.77V26.3454H280.844V21.0564H267.611C267.3 21.0564 267.01 20.944 266.789 20.7277C266.569 20.5158 266.452 20.2304 266.452 19.932V12.6234C266.452 12.325 266.573 12.0353 266.789 11.8234C267.005 11.6158 267.304 11.499 267.611 11.499H282.008C282.319 11.499 282.609 11.6158 282.829 11.8277C283.05 12.0396 283.167 12.3164 283.167 12.6234L283.171 14.9803H280.849V13.7478H268.766V18.8033H282.008C282.319 18.8033 282.609 18.9244 282.829 19.1363C283.05 19.3482 283.167 19.6293 283.167 19.9363V27.4741C283.167 27.7768 283.045 28.0536 282.829 28.2698C282.609 28.4861 282.319 28.5985 282.008 28.5985H267.611" fill="#AD001B"/>
      <path d="M328.16 13.8343V11.499H312.704V28.5942H315.017V21.2899H322.603V18.9503H315.017V13.8343H328.16Z" fill="#AD001B"/>
    </g>
  </symbol>

  <symbol id="triangle" viewBox="0 0 12 12" preserveAspectRatio="xMidYMid">
    <path fill="currentColor" d="M0 0H21L0 21V0Z"/>
  </symbol>

  <symbol id="vacancy-icon-1" viewBox="0 0 54 54" preserveAspectRatio="xMidYMid">
    <g fill="currentColor">
    <path d="M1.12512 10.125V37.125C1.12512 38.3676 2.13243 39.3749 3.37498 39.3749H43.875C45.1175 39.3749 46.1248 38.3676 46.1248 37.125V10.125H1.12512Z" fill="white"/>
    <path d="M46.1248 3.37498C46.1248 2.13243 45.1175 1.12512 43.875 1.12512H3.37498C2.13243 1.12512 1.12512 2.13243 1.12512 3.37498V10.125H46.1248V3.37498Z" fill="#F891A1"/>
    <path d="M52.8749 39.3749V32.6249H47.8968C47.6369 31.7008 47.2694 30.8101 46.8022 29.9713L50.3189 26.4545L45.5456 21.6808L42.0289 25.2C41.1901 24.732 40.2994 24.3637 39.3749 24.1033V19.1249H32.6249V24.1033C31.7008 24.3633 30.8101 24.7304 29.9713 25.1976L26.4545 21.6808L21.6808 26.4545L25.2 29.9713C24.732 30.8097 24.3637 31.7004 24.1033 32.6249H19.1249V39.3749H24.1033C24.3633 40.2994 24.7304 41.1901 25.1976 42.0289L21.6808 45.5456L26.4545 50.3189L29.9713 46.8001C30.8097 47.2681 31.7004 47.636 32.6249 47.8968V52.8749H39.3749V47.8968C40.2994 47.6369 41.1901 47.2694 42.0289 46.8022L45.5456 50.3189L50.3189 45.5456L46.8001 42.0289C47.2681 41.1901 47.636 40.2994 47.8968 39.3749H52.8749ZM35.9999 41.6252C32.8935 41.6252 30.375 39.1067 30.375 35.9999C30.375 32.8935 32.8935 30.375 35.9999 30.375C39.1067 30.375 41.6252 32.8935 41.6252 35.9999C41.6252 39.1067 39.1067 41.6252 35.9999 41.6252Z" fill="#F891A1"/>
    <path d="M1.12514 11.2501H42.7499V8.99986H2.24986V3.375C2.24986 2.75372 2.75372 2.24986 3.375 2.24986H43.875C44.4963 2.24986 45.0001 2.75372 45.0001 3.375V18.0001H47.25V3.375C47.25 1.51117 45.7388 0 43.875 0H3.375C1.51117 0 0 1.51117 0 3.375V10.125C0 10.7463 0.50386 11.2501 1.12514 11.2501Z" fill="black"/>
    <path d="M4.50012 4.50012H6.74998V6.74998H4.50012V4.50012Z" fill="black"/>
    <path d="M8.99988 4.50012H11.2502V6.74998H8.99988V4.50012Z" fill="black"/>
    <path d="M13.5 4.50012H15.7499V6.74998H13.5V4.50012Z" fill="black"/>
    <path d="M52.8749 31.5001H48.7204C48.563 31.0527 48.3826 30.6144 48.1794 30.1859L51.1157 27.2497C51.5549 26.8105 51.5549 26.0982 51.1157 25.659L46.342 20.8857C45.9028 20.4465 45.1909 20.4465 44.7513 20.8857L41.8151 23.8219C41.3866 23.618 40.9474 23.4371 40.5 23.2798V19.1249C40.5 18.5036 39.9961 18.0001 39.3749 18.0001H32.6249C32.0036 18.0001 31.5001 18.5036 31.5001 19.1249V23.2798C31.0527 23.4367 30.6144 23.6176 30.1859 23.8207L27.2497 20.8845C26.8105 20.4453 26.0982 20.4453 25.659 20.8845L20.8857 25.6577C20.4465 26.0973 20.4465 26.8092 20.8857 27.2484L23.8219 30.1851C23.618 30.6135 23.4371 31.0523 23.2798 31.5001H19.1249C18.5036 31.5001 18.0001 32.0036 18.0001 32.6249V35.9999H20.25V33.75H24.1033C24.6064 33.75 25.048 33.4159 25.1852 32.9322C25.4217 32.0918 25.7554 31.2818 26.1797 30.5192C26.4253 30.0796 26.3491 29.5304 25.9931 29.1745L23.2719 26.4533L26.4545 23.2707L29.1757 25.9873C29.5317 26.3437 30.0808 26.4199 30.52 26.1744C31.283 25.75 32.093 25.4159 32.9334 25.1798C33.4146 25.0426 33.7475 24.6039 33.75 24.1033V20.25H38.2501V24.1033C38.2501 24.6064 38.5838 25.048 39.0679 25.1852C39.9084 25.4217 40.7179 25.7554 41.4809 26.1797C41.9205 26.4253 42.4693 26.3491 42.8253 25.9931L45.5468 23.2719L48.7294 26.4545L46.0124 29.1757C45.6564 29.5317 45.5802 30.0808 45.8258 30.52C46.2501 31.283 46.5838 32.093 46.8203 32.9334C46.9575 33.4171 47.3996 33.7512 47.9026 33.7512H51.7501V38.251H47.8968C47.3938 38.251 46.9521 38.5851 46.8145 39.0692C46.5785 39.9092 46.2443 40.7192 45.82 41.4822C45.5744 41.9218 45.6507 42.4705 46.007 42.8265L48.7282 45.5481L45.5456 48.7307L42.8244 46.0124C42.4685 45.6564 41.9193 45.5802 41.4797 45.8258C40.7171 46.2501 39.9072 46.5838 39.0667 46.8203C38.583 46.9575 38.2489 47.3996 38.2489 47.9026V51.7501H33.75V47.8968C33.75 47.3938 33.4159 46.9521 32.9322 46.8145C32.0918 46.5785 31.2818 46.2443 30.5192 45.82C30.0796 45.5744 29.5304 45.6507 29.1745 46.007L26.4533 48.7282L23.2707 45.5456L25.9873 42.8244C26.3437 42.4685 26.4199 41.9193 26.1744 41.4797C25.75 40.7171 25.4159 39.9072 25.1798 39.0667C25.0426 38.5851 24.6039 38.2522 24.1033 38.2501H3.375C2.75372 38.2501 2.24986 37.7463 2.24986 37.125V13.5H0V37.125C0 38.9888 1.51117 40.5 3.375 40.5H23.2798C23.4367 40.947 23.6176 41.3858 23.8207 41.8138L20.8845 44.7501C20.4453 45.1897 20.4453 45.9016 20.8845 46.3412L25.6577 51.1144C26.0973 51.5536 26.8092 51.5536 27.2484 51.1144L30.1851 48.1782C30.6135 48.3817 31.0523 48.563 31.5001 48.7204V52.8749C31.5001 53.4961 32.0036 54 32.6249 54H39.3749C39.9961 54 40.5 53.4961 40.5 52.8749V48.7204C40.947 48.563 41.3858 48.3826 41.8138 48.1794L44.7501 51.1157C45.1897 51.5549 45.9016 51.5549 46.3412 51.1157L51.1144 46.342C51.5536 45.9028 51.5536 45.1909 51.1144 44.7513L48.1782 41.8151C48.3817 41.3866 48.563 40.9474 48.7204 40.5H52.8749C53.4961 40.5 54 39.9961 54 39.3749V32.6249C54 32.0036 53.4961 31.5001 52.8749 31.5001V31.5001Z" fill="black"/>
    <path d="M5.62488 14.6251H22.4999V16.875H5.62488V14.6251Z" fill="black"/>
    <path d="M5.62488 19.1249H22.4999V21.3752H5.62488V19.1249Z" fill="black"/>
    <path d="M5.62488 23.625H18.0002V25.8749H5.62488V23.625Z" fill="black"/>
    <path d="M5.62488 28.1251H18.0002V30.375H5.62488V28.1251Z" fill="black"/>
    <path d="M5.62488 32.6249H15.7499V34.8751H5.62488V32.6249Z" fill="black"/>
    <path d="M35.9999 31.5002V29.2499C32.2722 29.2499 29.2499 32.2722 29.2499 35.9999C29.2499 39.728 32.2722 42.7499 35.9999 42.7499C39.728 42.7499 42.7499 39.728 42.7499 35.9999H40.5C40.5 38.4854 38.4854 40.5 35.9999 40.5C33.5148 40.5 31.5002 38.4854 31.5002 35.9999C31.5002 33.5148 33.5148 31.5002 35.9999 31.5002V31.5002Z" fill="black"/>
    </g>
  </symbol>
  
  <symbol id="vacancy-icon-2" viewBox="0 0 50 50" preserveAspectRatio="xMidYMid">
    <g fill="currentColor">
    <path d="M1.04181 9.375H30.2082V40.625H1.04181V9.375Z" fill="#F891A1"/>
    <path d="M1.04181 46.875C1.04181 48.0255 1.9745 48.9582 3.12502 48.9582H28.125C29.2755 48.9582 30.2082 48.0255 30.2082 46.875V40.625H1.04181V46.875Z" fill="white"/>
    <path d="M30.2082 3.12495C30.2082 1.97444 29.2755 1.04175 28.125 1.04175H3.12502C1.9745 1.04175 1.04181 1.97444 1.04181 3.12495V9.37495H30.2082V3.12495Z" fill="white"/>
    <path d="M21.875 31.25H26.0418V35.4168H21.875V31.25Z" fill="white"/>
    <path d="M13.5418 31.25H17.7082V35.4168H13.5418V31.25Z" fill="white"/>
    <path d="M5.20819 31.25H9.37499V35.4168H5.20819V31.25Z" fill="white"/>
    <path d="M13.5418 22.9167H17.7082V27.0832H13.5418V22.9167Z" fill="white"/>
    <path d="M5.20819 22.9167H9.37499V27.0832H5.20819V22.9167Z" fill="white"/>
    <path d="M5.20819 14.5833H9.37499V18.75H5.20819V14.5833Z" fill="white"/>
    <path d="M13.5418 14.5833H17.7082V18.75H13.5418V14.5833Z" fill="white"/>
    <path d="M21.875 14.5833H26.0418V18.75H21.875V14.5833Z" fill="white"/>
    <path d="M48.9582 11.4582V38.5418C48.9548 39.6908 48.024 40.6216 46.875 40.625H32.2918C31.1424 40.6216 30.2116 39.6908 30.2082 38.5418V27.0832H23.9582L30.2082 20.8332V11.4582C30.2116 10.3092 31.1424 9.37843 32.2918 9.375H46.875C48.024 9.37843 48.9548 10.3092 48.9582 11.4582Z" fill="white"/>
    <path d="M29.1668 46.875C29.1668 47.4503 28.7003 47.9168 28.125 47.9168H3.125C2.54974 47.9168 2.08321 47.4503 2.08321 46.875V41.6668H27.0832V39.5832H2.08321V10.4168H27.0832V8.33321H2.08321V3.125C2.08321 2.54974 2.54974 2.08321 3.125 2.08321H28.125C28.7003 2.08321 29.1668 2.54974 29.1668 3.125V6.25H31.25V3.125C31.25 1.39923 29.8508 0 28.125 0H3.125C1.39923 0 0 1.39923 0 3.125V46.875C0 48.6008 1.39923 50 3.125 50H28.125C29.8508 50 31.25 48.6008 31.25 46.875V43.75H29.1668V46.875Z" fill="black"/>
    <path d="M12.5 4.16675H18.75V6.24995H12.5V4.16675Z" fill="black"/>
    <path d="M12.5 43.75H18.75V45.8332H12.5V43.75Z" fill="black"/>
    <path d="M10.4168 14.5832C10.4168 14.0079 9.95027 13.5417 9.37501 13.5417H5.20822C4.63296 13.5417 4.16681 14.0079 4.16681 14.5832V18.75C4.16681 19.3252 4.63296 19.7917 5.20822 19.7917H9.37501C9.95027 19.7917 10.4168 19.3252 10.4168 18.75V14.5832ZM8.33322 17.7082H6.25001V15.625H8.33322V17.7082Z" fill="black"/>
    <path d="M18.75 14.5832C18.75 14.0079 18.2835 13.5417 17.7082 13.5417H13.5418C12.9665 13.5417 12.5 14.0079 12.5 14.5832V18.75C12.5 19.3252 12.9665 19.7917 13.5418 19.7917H17.7082C18.2835 19.7917 18.75 19.3252 18.75 18.75V14.5832ZM16.6668 17.7082H14.5832V15.625H16.6668V17.7082Z" fill="black"/>
    <path d="M27.0832 18.75V14.5832C27.0832 14.0079 26.617 13.5417 26.0418 13.5417H21.875C21.2997 13.5417 20.8332 14.0079 20.8332 14.5832V18.75C20.8332 19.3252 21.2997 19.7917 21.875 19.7917H26.0418C26.617 19.7917 27.0832 19.3252 27.0832 18.75ZM25 17.7082H22.9168V15.625H25V17.7082Z" fill="black"/>
    <path d="M10.4168 22.9168C10.4168 22.3415 9.95027 21.875 9.37501 21.875H5.20822C4.63296 21.875 4.16681 22.3415 4.16681 22.9168V27.0832C4.16681 27.6585 4.63296 28.125 5.20822 28.125H9.37501C9.95027 28.125 10.4168 27.6585 10.4168 27.0832V22.9168ZM8.33322 26.0418H6.25001V23.9582H8.33322V26.0418Z" fill="black"/>
    <path d="M18.75 22.9168C18.75 22.3415 18.2835 21.875 17.7082 21.875H13.5418C12.9665 21.875 12.5 22.3415 12.5 22.9168V27.0832C12.5 27.6585 12.9665 28.125 13.5418 28.125H17.7082C18.2835 28.125 18.75 27.6585 18.75 27.0832V22.9168ZM16.6668 26.0418H14.5832V23.9582H16.6668V26.0418Z" fill="black"/>
    <path d="M9.37501 30.2083H5.20822C4.63296 30.2083 4.16681 30.6748 4.16681 31.25V35.4168C4.16681 35.9921 4.63296 36.4582 5.20822 36.4582H9.37501C9.95027 36.4582 10.4168 35.9921 10.4168 35.4168V31.25C10.4168 30.6748 9.95027 30.2083 9.37501 30.2083V30.2083ZM8.33322 34.375H6.25001V32.2918H8.33322V34.375Z" fill="black"/>
    <path d="M17.7082 30.2083H13.5418C12.9665 30.2083 12.5 30.6748 12.5 31.25V35.4168C12.5 35.9921 12.9665 36.4582 13.5418 36.4582H17.7082C18.2835 36.4582 18.75 35.9921 18.75 35.4168V31.25C18.75 30.6748 18.2835 30.2083 17.7082 30.2083V30.2083ZM16.6668 34.375H14.5832V32.2918H16.6668V34.375Z" fill="black"/>
    <path d="M20.8332 31.25V35.4168C20.8332 35.9921 21.2997 36.4582 21.875 36.4582H26.0418C26.617 36.4582 27.0832 35.9921 27.0832 35.4168V31.25C27.0832 30.6748 26.617 30.2083 26.0418 30.2083H21.875C21.2997 30.2083 20.8332 30.6748 20.8332 31.25V31.25ZM22.9168 32.2918H25V34.375H22.9168V32.2918Z" fill="black"/>
    <path d="M46.875 8.33325H32.2918C30.5656 8.33325 29.1668 9.73248 29.1668 11.4583V20.4022L23.222 26.347C22.924 26.6449 22.8352 27.0928 22.9961 27.4819C23.1575 27.871 23.5371 28.125 23.9582 28.125H29.1668V38.5418C29.1668 40.2676 30.5656 41.6668 32.2918 41.6668H46.875C48.6008 41.6668 50 40.2676 50 38.5418V11.4583C50 9.73248 48.6008 8.33325 46.875 8.33325V8.33325ZM47.9168 38.5418C47.9168 39.1171 47.4503 39.5833 46.875 39.5833H32.2918C31.7165 39.5833 31.25 39.1171 31.25 38.5418V27.0833C31.25 26.508 30.7835 26.0418 30.2082 26.0418H26.4729L30.9448 21.5699C31.1401 21.3746 31.25 21.1094 31.25 20.8333V11.4583C31.25 10.883 31.7165 10.4168 32.2918 10.4168H46.875C47.4503 10.4168 47.9168 10.883 47.9168 11.4583V38.5418Z" fill="black"/>
    <path d="M37.5 21.875C37.7762 21.875 38.0413 21.7651 38.2366 21.5698L44.4866 15.3198L43.0134 13.8469L37.5 19.3603L36.153 18.0133L34.6802 19.4866L36.7634 21.5698C36.9587 21.7651 37.2238 21.875 37.5 21.875V21.875Z" fill="black"/>
    <path d="M36.4582 26.0417H44.7918V28.125H36.4582V26.0417Z" fill="black"/>
    <path d="M34.375 30.2083H44.7918V32.2918H34.375V30.2083Z" fill="black"/>
    <path d="M34.375 34.375H44.7918V36.4582H34.375V34.375Z" fill="black"/>
    </g>
  </symbol>
  
  <symbol id="vacancy-icon-3" viewBox="0 0 52 52" preserveAspectRatio="xMidYMid">
    <g fill="currentColor">
    <path d="M40.0835 16.25C40.0835 15.0535 39.1135 14.0835 37.9166 14.0835H3.25003C2.0535 14.0835 1.0835 15.0535 1.0835 16.25V37.9166H40.0835V16.25Z" fill="#F891A1"/>
    <path d="M1.0835 37.9165V42.25C1.0835 43.4465 2.0535 44.4165 3.25003 44.4165H37.9166C39.1135 44.4165 40.0835 43.4465 40.0835 42.25V37.9165H1.0835Z" fill="white"/>
    <path d="M27.0835 44.4165V50.9165H14.0835V44.4165H27.0835Z" fill="#F891A1"/>
    <path d="M24.9165 17.3335H29.25V26H24.9165V17.3335Z" fill="#F891A1"/>
    <path d="M42.25 16.25H46.5835V26H42.25V16.25Z" fill="#F891A1"/>
    <path d="M33.5835 11.9165H37.9166V26H33.5835V11.9165Z" fill="#F891A1"/>
    <path d="M33.5835 37.9165C33.5835 39.1135 32.6135 40.0835 31.4165 40.0835C30.22 40.0835 29.25 39.1135 29.25 37.9165C29.25 36.72 30.22 35.75 31.4165 35.75C32.6135 35.75 33.5835 36.72 33.5835 37.9165Z" fill="white"/>
    <path d="M32.5 6.50003H48.75C49.945 6.5036 50.913 7.47162 50.9166 8.66656V29.25C50.913 30.445 49.945 31.413 48.75 31.4166H22.75C21.5551 31.413 20.5871 30.445 20.5835 29.25V3.25003C20.5871 2.05508 21.5551 1.08707 22.75 1.0835H30.3335C31.5284 1.08707 32.4965 2.05508 32.5 3.25003V6.50003ZM46.5835 26V16.25H42.25V26H46.5835ZM37.9166 26V11.9166H33.5835V26H37.9166ZM29.25 26V17.3335H24.9166V26H29.25Z" fill="white"/>
    <path d="M48.75 5.41653H33.5835V3.25C33.5835 1.4552 32.1283 0 30.3335 0H22.75C20.9552 0 19.5 1.4552 19.5 3.25V29.25C19.5 31.0448 20.9552 32.5 22.75 32.5H30.3335V34.8661C29.4158 35.1938 28.6938 35.9158 28.3661 36.8335H4.33347V39H28.3661C28.8184 40.2981 30.0423 41.1677 31.4165 41.1677C32.7912 41.1677 34.0151 40.2981 34.4674 39H39V42.25C39 42.8483 38.5148 43.3335 37.9165 43.3335H3.25C2.65173 43.3335 2.16653 42.8483 2.16653 42.25V16.25C2.16653 15.6517 2.65173 15.1665 3.25 15.1665H17.3335V13H3.25C1.4552 13 0 14.4552 0 16.25V42.25C0 44.0448 1.4552 45.5 3.25 45.5H13V49.8335H10.8335V52H30.3335V49.8335H28.1665V45.5H37.9165C39.7117 45.5 41.1665 44.0448 41.1665 42.25V37.9165C41.1665 37.3183 40.6817 36.8335 40.0835 36.8335H34.4674C34.1397 35.9158 33.4176 35.1938 32.5 34.8661V32.5H48.75C50.5448 32.5 52 31.0448 52 29.25V8.66653C52 6.87173 50.5448 5.41653 48.75 5.41653ZM26 49.8335H15.1665V45.5H26V49.8335ZM31.4165 39C30.8183 39 30.3335 38.5148 30.3335 37.9165C30.3335 37.3183 30.8183 36.8335 31.4165 36.8335C32.0148 36.8335 32.5 37.3183 32.5 37.9165C32.5 38.5148 32.0148 39 31.4165 39ZM49.8335 29.25C49.8335 29.8483 49.3483 30.3335 48.75 30.3335H22.75C22.1517 30.3335 21.6665 29.8483 21.6665 29.25V3.25C21.6665 2.65173 22.1517 2.16653 22.75 2.16653H30.3335C30.9317 2.16653 31.4165 2.65173 31.4165 3.25V5.41653H27.0835V7.58347H48.75C49.3483 7.58347 49.8335 8.06827 49.8335 8.66653V29.25Z" fill="black"/>
    <path d="M29.25 16.25H24.9166C24.3183 16.25 23.8335 16.7352 23.8335 17.3335V26C23.8335 26.5983 24.3183 27.0835 24.9166 27.0835H29.25C29.8483 27.0835 30.3335 26.5983 30.3335 26V17.3335C30.3335 16.7352 29.8483 16.25 29.25 16.25ZM28.1666 24.9165H26V18.4165H28.1666V24.9165Z" fill="black"/>
    <path d="M37.9165 10.8335H33.5835C32.9852 10.8335 32.5 11.3183 32.5 11.9166V26C32.5 26.5983 32.9852 27.0835 33.5835 27.0835H37.9165C38.5148 27.0835 39 26.5983 39 26V11.9166C39 11.3183 38.5148 10.8335 37.9165 10.8335ZM36.8335 24.9166H34.6665V13H36.8335V24.9166Z" fill="black"/>
    <path d="M46.5834 15.1665H42.25C41.6517 15.1665 41.1665 15.6517 41.1665 16.25V26C41.1665 26.5982 41.6517 27.0834 42.25 27.0834H46.5834C47.1817 27.0834 47.6665 26.5982 47.6665 26V16.25C47.6665 15.6517 47.1817 15.1665 46.5834 15.1665ZM45.5 24.9165H43.3334V17.3334H45.5V24.9165Z" fill="black"/>
    <path d="M6.50003 20.5835C6.50003 19.9852 6.98523 19.5 7.5835 19.5H9.75003V17.3335H7.5835C5.7883 17.3335 4.3335 18.7883 4.3335 20.5835V22.75H6.50003V20.5835Z" fill="black"/>
    <path d="M4.3335 24.9165H6.50003V27.0834H4.3335V24.9165Z" fill="black"/>
    </g>
  </symbol>
  
  <symbol id="vacancy-icon-4" viewBox="0 0 58 58" preserveAspectRatio="xMidYMid">
    <g fill="currentColor">
    <path d="M1.21448 6.04712H42.2932V56.7918H1.21448V6.04712Z" fill="white"/>
    <path d="M37.4607 51.9589H13.2962L6.047 44.7096V10.8801H37.4607V51.9589Z" fill="white"/>
    <path d="M13.2962 44.7096V51.9588L6.047 44.7096H13.2962Z" fill="#F891A1"/>
    <path d="M33.4613 43.4893L27.7947 45.9179L30.2234 40.2513L33.4613 43.4893Z" fill="white"/>
    <path d="M56.1271 17.5856C57.0134 18.4829 57.0134 19.9262 56.1271 20.8235L33.4613 43.4893L30.2234 40.2514L52.8892 17.5856C53.7887 16.7037 55.2281 16.7037 56.1271 17.5856Z" fill="#F891A1"/>
    <path d="M31.4193 10.8801V13.2963H12.0883V8.46335C12.0923 7.13067 13.1715 6.05107 14.5046 6.04709H16.9209C16.9209 3.37818 19.0845 1.21411 21.7538 1.21411C24.4227 1.21411 26.5868 3.37818 26.5868 6.04709H29.0031C30.3358 6.05107 31.4154 7.13067 31.4193 8.46335V10.8801Z" fill="#F891A1"/>
    <path d="M56.9815 21.6779C58.3434 20.3076 58.3434 18.0944 56.9815 16.7241C55.609 15.3786 53.4122 15.3786 52.0396 16.7241L29.3654 39.3935C29.2575 39.5032 29.1721 39.6324 29.1128 39.7744L29.1044 39.7935L26.6881 45.437C26.4934 45.891 26.5952 46.4179 26.9443 46.767C27.2934 47.1166 27.8203 47.2179 28.2743 47.0237L33.9263 44.607H33.9387C34.0798 44.5472 34.2086 44.4614 34.3179 44.3534L54.4962 24.1605C54.8763 24.5844 54.8608 25.2308 54.4612 25.6357L43.9378 36.1591L45.6461 37.8679L56.1696 27.344C57.5106 25.9936 57.5283 23.8194 56.2094 22.4473L56.9815 21.6779ZM30.6304 42.3672L31.3459 43.0823L30.0902 43.6225L30.6304 42.3672ZM33.4613 41.781L31.9317 40.2514L53.7374 18.4457C54.1648 18.0302 54.8453 18.0302 55.2731 18.4457C55.6864 18.8718 55.6864 19.5492 55.2731 19.9753L33.4613 41.781Z" fill="black"/>
    <path d="M41.0853 55.5834H2.42237V7.25545H8.4637V4.83875H1.21446C0.546788 4.83875 0.00610352 5.37987 0.00610352 6.0471V56.7918C0.00610352 57.459 0.546788 58.0002 1.21446 58.0002H42.2932C42.9604 58.0002 43.5016 57.459 43.5016 56.7918V39.877H41.0853V55.5834Z" fill="black"/>
    <path d="M41.0853 22.9619H43.5015V6.0471C43.5015 5.37987 42.9604 4.83875 42.2932 4.83875H35.0439V7.25545H41.0853V22.9619Z" fill="black"/>
    <path d="M6.04702 9.6717C5.3798 9.6717 4.83911 10.2128 4.83911 10.8801V44.7096C4.83911 45.0303 4.9661 45.3374 5.19308 45.564L12.4423 52.8132C12.6689 53.0397 12.9759 53.1672 13.2963 53.1672H37.4607C38.1279 53.1672 38.6686 52.626 38.6686 51.9588V44.7096H36.2524V50.7509H14.5046V44.7096C14.5046 44.0423 13.9635 43.5017 13.2963 43.5017H7.25538V12.088H10.88V13.2963C10.88 13.9636 11.4207 14.5047 12.0884 14.5047H31.4194C32.0866 14.5047 32.6277 13.9636 32.6277 13.2963V12.088H36.2524V26.5865H38.6686V10.8801C38.6686 10.2128 38.1279 9.6717 37.4607 9.6717H32.6277V8.46335C32.6277 6.46167 31.0048 4.83873 29.0031 4.83873H27.674C27.1023 2.02336 24.6267 0 21.7539 0C18.881 0 16.4054 2.02336 15.8338 4.83873H14.5046C12.5029 4.83873 10.88 6.46167 10.88 8.46335V9.6717H6.04702ZM12.0884 49.0426L8.96371 45.9179H12.0884V49.0426ZM13.2963 8.46335C13.2963 7.79612 13.8374 7.25544 14.5046 7.25544H16.9209C17.5881 7.25544 18.1292 6.71431 18.1292 6.04708C18.1292 4.0454 19.7522 2.42246 21.7539 2.42246C23.7555 2.42246 25.3785 4.0454 25.3785 6.04708C25.3785 6.71431 25.9192 7.25544 26.5868 7.25544H29.0031C29.6703 7.25544 30.2115 7.79612 30.2115 8.46335V12.088H13.2963V8.46335Z" fill="black"/>
    <path d="M12.0883 19.3373H31.4193V21.754H12.0883V19.3373Z" fill="black"/>
    <path d="M12.0883 25.3785H31.4193V27.7948H12.0883V25.3785Z" fill="black"/>
    <path d="M12.0883 31.4196H31.4193V33.8358H12.0883V31.4196Z" fill="black"/>
    </g>
  </symbol>
  
  <symbol id="vacancy-icon-5" viewBox="0 0 60 60" preserveAspectRatio="xMidYMid">
    <g fill="currentColor">
    <path d="M52.5782 18.75C52.5782 17.3694 51.459 16.2501 50.0779 16.2501H10.0781C8.69748 16.2501 7.57825 17.3694 7.57825 18.75V43.7498H52.5782V18.75Z" fill="#F891A1"/>
    <path d="M7.57825 43.7499V48.75C7.57825 50.1306 8.69748 51.2499 10.0781 51.2499H50.0779C51.459 51.2499 52.5782 50.1306 52.5782 48.75V43.7499H7.57825Z" fill="white"/>
    <path d="M22.5782 51.2499H37.5782V58.7499H22.5782V51.2499Z" fill="#F891A1"/>
    <path d="M45.0782 16.2501V18.75H41.0408C40.7615 19.9832 40.2708 21.1592 39.5906 22.2249L42.453 25.0872L38.9154 28.6248L36.053 25.7625C34.9873 26.4427 33.8113 26.9334 32.5781 27.2126V31.2501H27.5779V27.2126C26.3447 26.9334 25.1692 26.4427 24.1031 25.7625L21.2407 28.6248L17.7031 25.0872L20.5655 22.2249C19.8852 21.1592 19.395 19.9832 19.1157 18.75H15.0782V13.7498H19.1157C19.395 12.5166 19.8852 11.3411 20.5655 10.2749L17.7031 7.41254L21.2407 3.87494L24.1031 6.73734C25.1692 6.0571 26.3447 5.56683 27.5779 5.2876V1.25012H32.5781V5.2876C33.8113 5.56683 34.9873 6.0571 36.053 6.73734L38.9154 3.87494L42.453 7.41254L39.5906 10.2749C40.2708 11.3411 40.7615 12.5166 41.0408 13.7498H45.0782V16.2501ZM33.8282 16.2501C33.8282 14.1787 32.1492 12.5001 30.0782 12.5001C28.0069 12.5001 26.3282 14.1787 26.3282 16.2501C26.3282 18.321 28.0069 20.0001 30.0782 20.0001C32.1492 20.0001 33.8282 18.321 33.8282 16.2501Z" fill="white"/>
    <path d="M50.078 15H48.8283V17.4998H50.078C50.7683 17.4998 51.3281 18.0597 51.3281 18.75V42.5002H41.3283V45H51.3281V48.75C51.3281 49.4403 50.7683 50.0002 50.078 50.0002H10.0781C9.38782 50.0002 8.82797 49.4403 8.82797 48.75V45H18.8283V42.5002H8.82797V18.75C8.82797 18.0597 9.38782 17.4998 10.0781 17.4998H11.3283V15H10.0781C8.0072 15 6.32812 16.6791 6.32812 18.75V48.75C6.32812 50.8209 8.0072 52.5 10.0781 52.5H21.3281V57.5002H18.8283V60H41.3283V57.5002H38.828V52.5H50.078C52.1494 52.5 53.828 50.8209 53.828 48.75V18.75C53.828 16.6791 52.1494 15 50.078 15ZM36.3281 57.5002H23.828V52.5H36.3281V57.5002Z" fill="black"/>
    <path d="M15.0783 20.0002H18.1604C18.3797 20.6978 18.6612 21.3739 19.0018 22.0212L16.8192 24.2038C16.3312 24.6918 16.3312 25.4832 16.8192 25.9712L20.3568 29.5088C20.8452 29.9968 21.6362 29.9968 22.1242 29.5088L24.3068 27.3262C24.9541 27.6668 25.6306 27.9483 26.3283 28.1676V31.2502C26.3283 31.9405 26.8877 32.4998 27.578 32.4998H32.5781C33.2684 32.4998 33.8283 31.9405 33.8283 31.2502V28.1676C34.5259 27.9483 35.202 27.6668 35.8493 27.3262L38.0319 29.5088C38.5199 29.9968 39.3114 29.9968 39.7993 29.5088L43.3369 25.9712C43.8249 25.4832 43.8249 24.6918 43.3369 24.2038L41.1543 22.0212C41.4949 21.3739 41.7764 20.6978 41.9957 20.0002H45.0783C45.7686 20.0002 46.328 19.4403 46.328 18.75V13.7498C46.328 13.0595 45.7686 12.5002 45.0783 12.5002H41.9957C41.7764 11.8025 41.4949 11.1259 41.1543 10.4787L43.3369 8.29605C43.8249 7.80807 43.8249 7.01706 43.3369 6.52863L39.7993 2.99103C39.3114 2.50305 38.5199 2.50305 38.0319 2.99103L35.8493 5.17365C35.202 4.83307 34.5259 4.55154 33.8283 4.33228V1.25015C33.8283 0.559845 33.2684 0 32.5781 0H27.578C26.8877 0 26.3283 0.559845 26.3283 1.25015V4.33228C25.6306 4.55154 24.9541 4.83307 24.3068 5.17365L22.1242 2.99103C21.6362 2.50305 20.8452 2.50305 20.3568 2.99103L16.8192 6.52863C16.3312 7.01706 16.3312 7.80807 16.8192 8.29605L19.0018 10.4787C18.6612 11.1259 18.3797 11.8025 18.1604 12.5002H15.0783C14.388 12.5002 13.8281 13.0595 13.8281 13.7498V18.75C13.8281 19.4403 14.388 20.0002 15.0783 20.0002ZM16.328 15H19.1158C19.6985 15.0005 20.2039 14.5981 20.3343 14.03C20.5801 12.9373 21.0141 11.8954 21.617 10.9511C21.936 10.4576 21.8678 9.80804 21.4531 9.39102L19.4705 7.41257L21.2407 5.6424L23.2191 7.62497C23.6353 8.04108 24.2848 8.11066 24.7792 7.79251C25.7236 7.18964 26.7654 6.75568 27.8581 6.50986C28.4276 6.37939 28.83 5.87173 28.8281 5.28763V2.49985H31.328V5.28763C31.328 5.87036 31.7303 6.37573 32.298 6.5062C33.3911 6.75201 34.4325 7.18597 35.3769 7.78885C35.8708 8.10791 36.5199 8.0397 36.937 7.62497L38.9154 5.6424L40.6856 7.41257L38.703 9.39102C38.2874 9.80713 38.2173 10.4567 38.5355 10.9511C39.142 11.8945 39.5792 12.9364 39.8282 14.03C39.9582 14.5958 40.4604 14.9973 41.0408 15H43.8281V17.4998H41.0408C40.4581 17.4998 39.9522 17.9022 39.8218 18.4698C39.576 19.563 39.142 20.6044 38.5396 21.5488C38.2214 22.0436 38.291 22.6927 38.7067 23.1088L40.6856 25.0873L38.9154 26.8575L36.937 24.8749C36.5208 24.4592 35.8717 24.3892 35.3769 24.7073C34.4334 25.3139 33.3916 25.751 32.298 26.0001C31.7326 26.1301 31.3307 26.6322 31.328 27.2127V30H28.8281V27.2127C28.8286 26.6299 28.4262 26.1241 27.8581 25.9937C26.7654 25.7478 25.7236 25.3139 24.7792 24.7115C24.2848 24.3933 23.6353 24.4629 23.2191 24.8785L21.2407 26.8575L19.4705 25.0873L21.4531 23.1088C21.8692 22.6927 21.9388 22.0436 21.6206 21.5488C21.0146 20.6053 20.5769 19.5634 20.3279 18.4698C20.1979 17.9045 19.6957 17.5026 19.1158 17.4998H16.328V15Z" fill="black"/>
    <path d="M30.0783 21.2498C32.8395 21.2498 35.078 19.0114 35.078 16.2502C35.078 13.4885 32.8395 11.25 30.0783 11.25C27.3166 11.25 25.0781 13.4885 25.0781 16.2502C25.0781 19.0114 27.3166 21.2498 30.0783 21.2498ZM30.0783 13.7498C31.4589 13.7498 32.5781 14.8691 32.5781 16.2502C32.5781 17.6308 31.4589 18.75 30.0783 18.75C28.6972 18.75 27.578 17.6308 27.578 16.2502C27.578 14.8691 28.6972 13.7498 30.0783 13.7498Z" fill="black"/>
    <path d="M28.8281 35.0001H31.328V42.5001H28.8281V35.0001Z" fill="black"/>
    <path d="M28.8281 45H31.328V47.4998H28.8281V45Z" fill="black"/>
    <path d="M36.3281 32.4999H38.828V39.9999H36.3281V32.4999Z" fill="black"/>
    <path d="M36.3281 42.5001H38.828V45H36.3281V42.5001Z" fill="black"/>
    <path d="M21.3281 32.4999H23.828V39.9999H21.3281V32.4999Z" fill="black"/>
    <path d="M21.3281 42.5001H23.828V45H21.3281V42.5001Z" fill="black"/>
    </g>
  </symbol>
  
  <symbol id="vacancy-icon-6" viewBox="0 0 58 58" preserveAspectRatio="xMidYMid">
    <g fill="currentColor">
    <path d="M30.2085 49.5415V56.7915H15.7085V49.5415H30.2085Z" fill="#F891A1"/>
    <path d="M44.7085 42.2915V47.125C44.7045 48.4578 43.6248 49.5375 42.2915 49.5415H3.62502C2.29219 49.5375 1.21248 48.4578 1.2085 47.125V42.2915H44.7085Z" fill="white"/>
    <path d="M56.7915 3.62502V32.625C56.7875 33.9578 55.7078 35.0376 54.375 35.0415H37.4585C36.1252 35.0376 35.0455 33.9578 35.0415 32.625V3.62502C35.0455 2.29219 36.1252 1.21248 37.4585 1.2085H54.375C55.7078 1.21248 56.7875 2.29219 56.7915 3.62502Z" fill="white"/>
    <path d="M6.0415 21.75H15.7085V31.4165H6.0415V21.75Z" fill="white"/>
    <path d="M15.7085 31.4165V21.75H6.04153V31.4165H15.7085ZM35.0415 15.7085V32.625C35.0455 33.9578 36.1252 35.0376 37.4585 35.0415H44.7085V42.2915H1.2085V18.125C1.21248 16.7922 2.29219 15.7125 3.62502 15.7085H35.0415Z" fill="#F891A1"/>
    <path d="M35.0415 6.0415H56.7915V26.5835H35.0415V6.0415Z" fill="white"/>
    <path d="M43.5 41.0835H2.41652V18.125C2.41652 17.4577 2.9577 16.9165 3.625 16.9165H31.4165V14.5H3.625C1.62311 14.5 0 16.1231 0 18.125V47.125C0 49.1269 1.62311 50.75 3.625 50.75H14.5V55.5835H12.0835V58H33.8335V55.5835H31.4165V50.75H42.2915C44.2939 50.75 45.9165 49.1269 45.9165 47.125V38.6665H43.5V41.0835ZM29 55.5835H16.9165V50.75H29V55.5835ZM42.2915 48.3335H3.625C2.9577 48.3335 2.41652 47.7923 2.41652 47.125V43.5H43.5V47.125C43.5 47.7923 42.9588 48.3335 42.2915 48.3335Z" fill="black"/>
    <path d="M54.375 0H37.4585C35.4562 0 33.8335 1.62311 33.8335 3.625V32.625C33.8335 34.6269 35.4562 36.25 37.4585 36.25H54.375C56.3769 36.25 58 34.6269 58 32.625V3.625C58 1.62311 56.3769 0 54.375 0ZM55.5835 32.625C55.5835 33.2923 55.0423 33.8335 54.375 33.8335H37.4585C36.7912 33.8335 36.25 33.2923 36.25 32.625V3.625C36.25 2.9577 36.7912 2.41652 37.4585 2.41652H54.375C55.0423 2.41652 55.5835 2.9577 55.5835 3.625V32.625Z" fill="black"/>
    <path d="M43.5 29H48.3335V31.4165H43.5V29Z" fill="black"/>
    <path d="M15.7085 32.625C16.3758 32.625 16.9165 32.0838 16.9165 31.4165V21.75C16.9165 21.0827 16.3758 20.5415 15.7085 20.5415H6.04153C5.37424 20.5415 4.8335 21.0827 4.8335 21.75V31.4165C4.8335 32.0838 5.37424 32.625 6.04153 32.625H15.7085ZM7.25002 22.9585H14.5V30.2085H7.25002V22.9585Z" fill="black"/>
    <path d="M19.3335 20.5415H31.4165V22.9585H19.3335V20.5415Z" fill="black"/>
    <path d="M19.3335 25.375H31.4165V27.7915H19.3335V25.375Z" fill="black"/>
    <path d="M19.3335 30.2085H31.4165V32.625H19.3335V30.2085Z" fill="black"/>
    <path d="M4.8335 35.0415H31.4165V37.4585H4.8335V35.0415Z" fill="black"/>
    <path d="M50.75 4.8335H53.1665V7.25001H50.75V4.8335Z" fill="black"/>
    <path d="M50.75 9.6665H53.1665V12.0835H50.75V9.6665Z" fill="black"/>
    <path d="M45.9165 4.8335H48.3335V7.25001H45.9165V4.8335Z" fill="black"/>
    </g>
  </symbol>

  <symbol id="resume-icon-1" viewBox="0 0 51 51" preserveAspectRatio="xMidYMid">
    <g fill="currentColor">
    <path d="M9.56227 49.9375H37.1864C38.3603 49.9375 39.3116 48.9862 39.3116 47.8127V3.18892C39.3116 2.01543 38.3603 1.06372 37.1864 1.06372H3.18744C2.01394 1.06372 1.06262 2.01543 1.06262 3.18892V41.4379L9.56227 49.9375Z" fill="white"/>
    <path d="M9.56226 41.4377V49.9374L1.06262 41.4377H9.56226Z" fill="#F891A1"/>
    <path d="M5.31226 29.7504H10.6249V35.063H5.31226V29.7504Z" fill="#F891A1"/>
    <path d="M49.9361 8.61784L47.0249 11.5399L42.6476 7.16226L45.5693 4.2511L49.9361 8.61784Z" fill="white"/>
    <path d="M28.0813 26.1063L25.8923 23.9177L42.6476 7.16235L47.0249 11.54L30.2699 28.2949L28.0813 26.1063Z" fill="#F891A1"/>
    <path d="M30.2699 28.2947L24.4367 29.7503L25.8923 23.9175L28.0813 26.1061L30.2699 28.2947Z" fill="white"/>
    <path d="M5.31226 19.1259H10.6249V24.4381H5.31226V19.1259Z" fill="#F891A1"/>
    <path d="M5.31226 8.5011H10.6249V13.8133H5.31226V8.5011Z" fill="#F891A1"/>
    <path d="M38.249 47.8137C38.249 48.4004 37.7731 48.8759 37.1864 48.8759H10.6248V41.4388C10.6248 40.8521 10.149 40.3762 9.56224 40.3762H2.12481V3.18986C2.12481 2.60311 2.60067 2.12725 3.18741 2.12725H37.1864C37.7731 2.12725 38.249 2.60311 38.249 3.18986V6.37727H40.3738V3.18986C40.3738 1.42923 38.947 0.00244141 37.1864 0.00244141H3.18741C1.42718 0.00244141 0 1.42923 0 3.18986V41.4388C0 41.7205 0.112058 41.9906 0.311271 42.1898L8.81091 50.6898C9.01013 50.889 9.28054 51.0011 9.56224 51.0011H37.1864C38.947 51.0011 40.3738 49.5739 40.3738 47.8137V23.3766H38.249V47.8137ZM8.49964 47.3736L3.62708 42.501H8.49964V47.3736Z" fill="black"/>
    <path d="M50.6874 7.86394L46.3237 3.50031C45.909 3.08632 45.2374 3.08632 44.8226 3.50031L25.1414 23.1633C25.0048 23.2995 24.9075 23.4703 24.8608 23.6574L23.606 28.6884H13.8123V30.8132H24.4367C24.5235 30.8132 24.6099 30.8027 24.6939 30.7824L30.5271 29.3268C30.7139 29.2798 30.8847 29.1829 31.0209 29.0463L50.6885 9.36816C50.8881 9.16894 51.0002 8.89814 51.0002 8.61566C50.9998 8.33357 50.8874 8.06315 50.6874 7.86394ZM29.5836 26.1064L43.3955 12.2945L41.8932 10.7918L28.0813 24.6041L27.395 23.9177L42.6507 8.66935L45.5195 11.5377L30.2699 26.7927L29.5836 26.1064ZM26.4681 26.0001L28.1918 27.7234L25.8958 28.2962L26.4681 26.0001ZM47.0206 10.0343L44.1522 7.16592L45.5673 5.75158L48.4361 8.62033L47.0206 10.0343Z" fill="black"/>
    <path d="M13.8123 23.3757H22.3119V25.5009H13.8123V23.3757Z" fill="black"/>
    <path d="M13.8123 18.0634H26.5619V20.1882H13.8123V18.0634Z" fill="black"/>
    <path d="M13.8123 12.7511H30.8115V14.8759H13.8123V12.7511Z" fill="black"/>
    <path d="M13.8123 7.43848H35.0616V9.56368H13.8123V7.43848Z" fill="black"/>
    <path d="M13.8123 34.0005H35.0616V36.1253H13.8123V34.0005Z" fill="black"/>
    <path d="M13.8123 39.3127H35.0616V41.4379H13.8123V39.3127Z" fill="black"/>
    <path d="M11.687 8.50108C11.687 7.91433 11.2116 7.43848 10.6248 7.43848H5.31221C4.72547 7.43848 4.25 7.91433 4.25 8.50108V13.8133C4.25 14.4004 4.72547 14.8759 5.31221 14.8759H10.6248C11.2116 14.8759 11.687 14.4004 11.687 13.8133V8.50108ZM9.56223 12.7511H6.37481V9.56368H9.56223V12.7511Z" fill="black"/>
    <path d="M11.687 19.126C11.687 18.5392 11.2116 18.0634 10.6248 18.0634H5.31221C4.72547 18.0634 4.25 18.5392 4.25 19.126V24.4382C4.25 25.0249 4.72547 25.5008 5.31221 25.5008H10.6248C11.2116 25.5008 11.687 25.0249 11.687 24.4382V19.126ZM9.56223 23.3756H6.37481V20.1882H9.56223V23.3756Z" fill="black"/>
    <path d="M10.6248 28.6882H5.31221C4.72547 28.6882 4.25 29.1637 4.25 29.7504V35.0631C4.25 35.6498 4.72547 36.1253 5.31221 36.1253H10.6248C11.2116 36.1253 11.687 35.6498 11.687 35.0631V29.7504C11.687 29.1637 11.2116 28.6882 10.6248 28.6882ZM9.56223 34.0005H6.37481V30.813H9.56223V34.0005Z" fill="black"/>
    </g>
  </symbol>

  <symbol id="resume-icon-2" viewBox="0 0 45 45" preserveAspectRatio="xMidYMid">
    <g fill="currentColor">
      <path d="M44.0624 17.8126L38.4374 22.2188V12.1876L44.0624 17.8126Z" fill="white"/>
      <path d="M6.56262 12.1876V22.2188L0.937622 17.8126L6.56262 12.1876Z" fill="white"/>
      <path d="M14.0625 0.937622V8.43751H6.56262L14.0625 0.937622Z" fill="#F891A1"/>
      <path d="M29.3345 29.3345L22.5 34.6876L15.6655 29.3345L6.56262 22.2188V8.43751H14.0625V0.937622H36.5625C37.5966 0.940712 38.4343 1.77842 38.4374 2.81251V22.2188L29.3345 29.3345Z" fill="white"/>
      <path d="M38.4374 22.2188L44.0624 17.8126V42.1875C44.0593 43.2216 43.2216 44.0593 42.1875 44.0624H2.81251C1.77842 44.0593 0.940712 43.2216 0.937622 42.1875V17.8126L6.56262 22.2188L15.6655 29.3345L22.5 34.6876L29.3345 29.3345L38.4374 22.2188Z" fill="#F891A1"/>
      <path d="M44.7188 17.1562L39.375 11.7993V2.8125C39.375 1.25931 38.1157 0 36.5625 0H14.0625C13.8139 0 13.5753 0.098877 13.3995 0.274658L5.89966 7.77454C5.72388 7.95033 5.625 8.18893 5.625 8.4375V11.7993L0.274658 17.1497C0.098877 17.3254 0 17.564 0 17.8126V42.1875C0 43.7407 1.25931 45 2.8125 45H42.1875C43.7407 45 45 43.7407 45 42.1875V17.8126C44.9966 17.5651 44.8953 17.3292 44.7188 17.1562ZM42.6479 17.7299L39.375 20.2904V14.4505L42.6479 17.7299ZM37.5001 2.8125V21.7574L22.5 33.497L7.49989 21.7574V9.37511H14.0625C14.5802 9.37511 15.0001 8.95523 15.0001 8.4375V1.87489H36.5625C37.0802 1.87489 37.5001 2.29477 37.5001 2.8125ZM8.82545 7.49989L13.1249 3.20045V7.49989H8.82545ZM5.625 20.2904L2.34936 17.7271L5.625 14.4505V20.2904ZM43.1251 42.1875C43.1251 42.7052 42.7052 43.1251 42.1875 43.1251H2.8125C2.29477 43.1251 1.87489 42.7052 1.87489 42.1875V19.738L14.25 29.4224L4.02477 39.6497L5.35034 40.9752L15.7386 30.587L21.9215 35.4254C22.261 35.6915 22.739 35.6915 23.0785 35.4254L29.2614 30.587L39.6497 40.9752L40.9752 39.6497L30.75 29.4224L43.1251 19.738V42.1875Z" fill="black"/>
      <path d="M16.875 11.25H31.8751V13.1249H16.875V11.25Z" fill="black"/>
      <path d="M13.1249 15.9374H31.8751V17.8126H13.1249V15.9374Z" fill="black"/>
      <path d="M13.1249 20.6251H28.125V22.5H13.1249V20.6251Z" fill="black"/>
      <path d="M33.75 6.56262V8.43751H35.6249V6.56262C35.6249 5.00909 34.3659 3.75012 32.8124 3.75012H30.9375V5.62501H32.8124C33.3301 5.62501 33.75 6.04489 33.75 6.56262Z" fill="black"/>
      <path d="M27.1874 3.75012H29.0626V5.62501H27.1874V3.75012Z" fill="black"/>
      <path d="M29.9999 20.6251H31.8751V22.5H29.9999V20.6251Z" fill="black"/>
    </g>
  </symbol>

  <symbol id="resume-icon-3" viewBox="0 0 56 56" preserveAspectRatio="xMidYMid">
    <g fill="currentColor">
      <path d="M0.875 11.37H55.125V30.62H0.875V11.37Z" fill="white"/>
      <path d="M2.625 30.62H53.375V53.37H2.625V30.62Z" fill="white"/>
      <path d="M48.4138 30.62C47.3829 34.7664 45.914 38.8718 42.6763 41.5443C38.9819 44.5944 33.7828 45.0519 29.016 44.5786C24.2488 44.1052 19.5405 42.8401 14.7532 42.967C10.4684 43.1024 6.29077 44.3414 2.625 46.564V53.37H53.375V30.62H48.4138Z" fill="#F891A1"/>
      <path d="M50.75 11.37V26.245H5.25V11.37H0.875V30.62H55.125V11.37H50.75Z" fill="#F891A1"/>
      <path d="M2.625 30.62H5.25V47.245H2.625V30.62Z" fill="#F891A1"/>
      <path d="M50.75 30.62H53.375V47.245H50.75V30.62Z" fill="#F891A1"/>
      <path d="M8.75 50.745H47.25V53.37H8.75V50.745Z" fill="#F891A1"/>
      <path d="M31.5 37.62V39.37L29.75 41.12H26.25L24.5 39.37V37.62H31.5Z" fill="#F891A1"/>
      <path d="M22.75 30.62H33.25V37.62H22.75V30.62Z" fill="white"/>
      <path d="M21.875 6.53992V11.3699H18.375V7.38843C19.5251 7.04108 20.6937 6.75739 21.875 6.53992Z" fill="#F891A1"/>
      <path d="M37.625 7.38843V11.3699H34.125V6.53992C35.3063 6.75739 36.4749 7.04108 37.625 7.38843Z" fill="#F891A1"/>
      <path d="M37.625 7.38834C36.4749 7.04099 35.3063 6.75729 34.125 6.53983C30.0773 5.77847 25.9227 5.77847 21.875 6.53983C20.6937 6.75729 19.5251 7.04099 18.375 7.38834C17.8764 7.53702 17.3949 7.69467 16.9048 7.86984L15.75 4.71976C23.6767 1.91959 32.3233 1.91959 40.25 4.71976L39.0952 7.86984C38.6051 7.69467 38.1236 7.53702 37.625 7.38834Z" fill="white"/>
      <path d="M53.375 47.245V53.37H47.25V49.87H49.875V47.245H53.375Z" fill="white"/>
      <path d="M8.75 50.745V53.37H2.625V47.245H6.125V49.87H8.75V50.745Z" fill="white"/>
      <path d="M55.125 10.4949H38.5V8.59492C38.5995 8.6291 38.7004 8.65816 38.7999 8.69319C38.8948 8.72737 38.9943 8.74489 39.0952 8.74489C39.4617 8.74446 39.7894 8.51588 39.9159 8.17152L41.0707 5.02144C41.1515 4.80226 41.1408 4.55916 41.0417 4.34767C40.9421 4.13576 40.7618 3.97255 40.5414 3.89479C32.425 1.03523 23.575 1.03523 15.4586 3.89479C15.2382 3.97255 15.0579 4.13533 14.9583 4.34682C14.8588 4.55873 14.8481 4.80098 14.9284 5.02058L16.0833 8.17067C16.2477 8.6227 16.7459 8.85683 17.1988 8.69575C17.2996 8.66072 17.4005 8.63209 17.5 8.59792V10.4949H0.875C0.391785 10.4949 0 10.8867 0 11.3699V30.6199C0 31.1031 0.391785 31.4949 0.875 31.4949H1.75V53.3699C1.75 53.8531 2.14178 54.2449 2.625 54.2449H53.375C53.8582 54.2449 54.25 53.8531 54.25 53.3699V31.4949H55.125C55.6082 31.4949 56 31.1031 56 30.6199V11.3699C56 10.8867 55.6082 10.4949 55.125 10.4949ZM35 10.4949V7.62123C35.5926 7.75069 36.1762 7.8968 36.75 8.05873V10.4949H35ZM22.75 7.28242C26.2265 6.70692 29.7735 6.70692 33.25 7.28242V10.4949H22.75V7.28242ZM16.8805 5.2607C24.1078 2.91383 31.8922 2.91383 39.1195 5.2607L38.5675 6.76631C38.3389 6.69197 38.1108 6.62105 37.8788 6.55183C36.7 6.19466 35.5024 5.90242 34.2912 5.67683C30.1375 4.89284 25.874 4.89284 21.7203 5.67683C20.507 5.90157 19.3073 6.1938 18.1263 6.55183C17.8939 6.62105 17.6645 6.69282 17.4359 6.76631L16.8805 5.2607ZM19.25 8.05702C19.8238 7.89595 20.4074 7.75026 21 7.61952V10.4949H19.25V8.05702ZM4.375 31.4949V46.3699H3.5V31.4949H4.375ZM22.75 38.4949H23.625V39.3699C23.625 39.6019 23.7173 39.8245 23.8813 39.9885L25.6313 41.7385C25.7954 41.9026 26.018 41.9949 26.25 41.9949H29.75C29.982 41.9949 30.2046 41.903 30.3687 41.7394L32.1187 39.9894C32.2831 39.8249 32.375 39.6023 32.375 39.3699V38.4949H33.25C33.7332 38.4949 34.125 38.1031 34.125 37.6199V31.4949H49.875V46.3699C49.3918 46.3699 49 46.7617 49 47.2449V48.9949H47.25C46.7668 48.9949 46.375 49.3867 46.375 49.8699H42.875V51.6199H46.375V52.4949H9.625V51.6199H37.625V49.8699H9.625C9.625 49.3867 9.23322 48.9949 8.75 48.9949H7V47.2449C7 46.7617 6.60822 46.3699 6.125 46.3699V31.4949H21.875V37.6199C21.875 38.1031 22.2668 38.4949 22.75 38.4949ZM25.375 38.4949H30.625V39.0076L29.3877 40.2449H26.6123L25.375 39.0076V38.4949ZM23.625 36.7449V31.4949H32.375V36.7449H23.625ZM3.5 48.1199H5.25V49.8699C5.25 50.3531 5.64178 50.7449 6.125 50.7449H7.875V52.4949H3.5V48.1199ZM48.125 52.4949V50.7449H49.875C50.3582 50.7449 50.75 50.3531 50.75 49.8699V48.1199H52.5V52.4949H48.125ZM52.5 46.3699H51.625V31.4949H52.5V46.3699ZM54.25 29.7449H1.75V12.2449H54.25V29.7449Z" fill="black"/>
      <path d="M27.125 32.37H28.875V35.87H27.125V32.37Z" fill="black"/>
      <path d="M39.375 49.87H41.125V51.62H39.375V49.87Z" fill="black"/>
      <path d="M5.25 27.12H50.75C51.2332 27.12 51.625 26.7282 51.625 26.245V13.995H49.875V25.37H6.125V13.995H4.375V26.245C4.375 26.7282 4.76678 27.12 5.25 27.12Z" fill="black"/>
    </g>
  </symbol>

  <symbol id="resume-icon-4" viewBox="0 0 59 59" preserveAspectRatio="xMidYMid">
    <g fill="currentColor">
      <path d="M54.8239 34.5434L51.5695 37.7978L35.9534 22.1817L42.4617 15.6733L58.0778 31.2894L54.8239 34.5434Z" fill="white"/>
      <path d="M19.7936 18.9273L23.0475 22.1817L7.43141 37.7978L4.17748 34.5434L0.923096 31.2894L16.5392 15.6733L19.7936 18.9273Z" fill="white"/>
      <path d="M31.3441 52.5474L25.813 58.0785L23.0475 55.313L28.5786 49.7819L31.3441 52.5474Z" fill="#F891A1"/>
      <path d="M20.282 52.5476L25.8126 47.017L28.5786 49.7825L23.0475 55.3136L20.282 52.5476Z" fill="#F891A1"/>
      <path d="M17.5164 49.7822L23.0475 44.2516L25.8135 47.0171L20.2824 52.5482L17.5164 49.7822Z" fill="#F891A1"/>
      <path d="M23.0475 44.2507L17.5164 49.7818L14.7509 47.0162L20.282 41.4851L23.0475 44.2507Z" fill="#F891A1"/>
      <path d="M35.0315 34.1104L33.1878 35.9541C30.4222 38.7196 28.5785 35.9541 28.5785 35.9541L23.9693 40.5633L21.2037 37.7978L34.1096 24.8918H38.6635L48.8593 35.0876V38.7196L44.25 43.3289L35.0315 34.1104Z" fill="white"/>
      <path d="M42.4064 47.0163L31.3442 58.0785L28.5786 55.3129L31.3442 52.5474L20.282 41.4851L16.5946 45.1726L10.1416 38.7196V35.0876L20.3373 24.8918H25.8131L29.9614 29.0402L21.2038 37.7977L23.9694 40.5633L28.5786 35.954C28.5786 35.954 30.4223 38.7196 33.1879 35.954L35.0316 34.1103L45.1719 44.2507L42.4064 47.0163Z" fill="white"/>
      <path d="M18.4382 6.45488L16.5945 9.22043L17.5164 12.9078L13.829 11.0641L10.1416 12.9078L11.0634 9.22043L9.21973 6.45488H11.9853L13.829 3.68933L15.6727 6.45488H18.4382Z" fill="#F891A1"/>
      <path d="M49.7811 6.45488L47.9374 9.22043L48.8593 12.9078L45.1719 11.0641L41.4845 12.9078L42.4063 9.22043L40.5626 6.45488H43.3282L45.1719 3.68933L47.0156 6.45488H49.7811Z" fill="#F891A1"/>
      <path d="M36.8752 5.53271L32.266 8.29826L35.0315 13.8294L29.5004 10.142L23.9693 13.8294L26.7349 8.29826L22.1256 5.53271H27.6567L29.5004 0.923462L31.3441 5.53271H36.8752Z" fill="white"/>
      <path d="M35.9534 22.1815L51.5695 37.7976L54.8238 34.5432L39.2078 18.9271L35.9534 22.1815Z" fill="#F891A1"/>
      <path d="M39.1006 32.6482C38.3809 31.9285 37.2137 31.9285 36.4935 32.6482L35.0315 34.1102L44.25 43.3287L47.0156 40.5632L39.1006 32.6482Z" fill="#F891A1"/>
      <path d="M29.9614 51.1643L24.4303 56.6954L25.8131 58.0782L31.3442 52.5471L29.9614 51.1643Z" fill="#F891A1"/>
      <path d="M21.6648 53.9299L27.1959 48.3993L28.5782 49.7816L23.0476 55.3127L21.6648 53.9299Z" fill="#F891A1"/>
      <path d="M18.8987 51.1646L24.4293 45.6339L25.8121 47.0162L20.281 52.5473L18.8987 51.1646Z" fill="#F891A1"/>
      <path d="M16.1337 48.3987L21.6643 42.868L23.0471 44.2504L17.516 49.7815L16.1337 48.3987Z" fill="#F891A1"/>
      <path d="M19.7936 18.9271L4.17749 34.5432L7.43142 37.7976L23.0475 22.1815L19.7936 18.9271Z" fill="#F891A1"/>
      <path d="M58.7296 30.6375L43.1135 15.0214C42.7534 14.6613 42.1701 14.6613 41.81 15.0214L35.3016 21.5297C34.942 21.8898 34.942 22.4732 35.3016 22.8333L36.4387 23.9698H34.1097C33.8653 23.9698 33.6308 24.0671 33.4579 24.2399L29.9614 27.7365L26.4648 24.2399C26.292 24.0671 26.0575 23.9698 25.8131 23.9698H22.5627L23.6993 22.8333C24.0594 22.4732 24.0594 21.8898 23.6993 21.5297L20.4454 18.2754L17.191 15.0214C16.8313 14.6613 16.2475 14.6613 15.8874 15.0214L0.271323 30.6375C-0.088325 30.9976 -0.088325 31.581 0.271323 31.9411L6.77964 38.4494C7.13974 38.809 7.7231 38.809 8.0832 38.4494L9.21975 37.3128V38.7195C9.21975 38.9639 9.31698 39.1984 9.48983 39.3712L15.291 45.1724L14.0991 46.3643C13.7394 46.7244 13.7394 47.3078 14.0991 47.6679L25.1613 58.7301C25.5214 59.0897 26.1052 59.0897 26.4648 58.7301L28.5786 56.6163L30.6924 58.7301C31.0525 59.0897 31.6363 59.0897 31.9959 58.7301L45.8237 44.9023C46.1838 44.5422 46.1838 43.9589 45.8237 43.5988L45.5536 43.3287L49.5111 39.3712C49.6839 39.1984 49.7812 38.9639 49.7812 38.7195V37.3128L50.9177 38.4494C51.2778 38.809 51.8616 38.809 52.2213 38.4494L58.7296 31.9411C59.0897 31.581 59.0897 30.9976 58.7296 30.6375ZM7.43142 36.4941L5.48104 34.5432L8.94968 31.0746L7.64613 29.771L4.17748 33.2401L2.22665 31.2893L16.5392 16.9767L18.49 18.9271L9.48983 27.9273L10.7934 29.2309L19.7936 20.2307L21.744 22.1815L7.43142 36.4941ZM16.0544 47.0161L20.282 42.7886L21.744 44.2506L17.5164 48.4781L16.0544 47.0161ZM18.82 49.7817L23.0475 45.5541L24.5095 47.0161L20.282 51.2437L18.82 49.7817ZM21.5855 52.5472L25.8131 48.3197L27.2751 49.7817L23.0475 54.0092L21.5855 52.5472ZM25.8131 56.7748L24.3511 55.3128L28.5786 51.0852L30.0406 52.5472L25.8131 56.7748ZM42.4064 45.7126L38.4489 41.7551L37.1453 43.0586L41.1028 47.0161L38.719 49.4L34.7615 45.4425L33.4579 46.746L37.4154 50.7035L35.0316 53.0874L33.8396 51.8954L32.5361 53.199L33.728 54.3909L31.3442 56.7748L29.8822 55.3128L31.9959 53.199C32.356 52.8389 32.356 52.2555 31.9959 51.8954L20.9337 40.8332C20.5741 40.4731 19.9903 40.4731 19.6302 40.8332L16.5946 43.8689L11.0635 38.3378V35.4691L20.719 25.8135H25.4314L28.6578 29.04L20.552 37.1458C20.1924 37.5059 20.1924 38.0893 20.552 38.4494L23.3176 41.2149C23.6777 41.5746 24.2615 41.5746 24.6211 41.2149L28.562 37.2741C29.0963 37.7278 29.7534 38.0114 30.4502 38.0888C31.7484 38.1433 32.9988 37.596 33.8396 36.6057L35.0316 35.4138L43.8684 44.2506L42.4064 45.7126ZM47.9375 38.3378L44.2501 42.0252L36.3351 34.1102L37.527 32.9183L36.2235 31.6147L32.5361 35.3021C32.077 35.8837 31.3842 36.233 30.6438 36.2564C30.1221 36.1632 29.6567 35.8715 29.3456 35.4421C29.1926 35.2126 28.9441 35.0636 28.6695 35.0366C28.3945 35.0095 28.1222 35.1068 27.9268 35.3021L23.9694 39.2596L22.5074 37.7976L34.4914 25.8135H38.2824L47.9375 35.4691V38.3378ZM54.8239 33.2401L51.3548 29.771L50.0513 31.0746L53.5203 34.5432L51.5695 36.4941L37.257 22.1815L39.2078 20.2307L48.2076 29.2309L49.5111 27.9273L40.5114 18.9271L42.4617 16.9767L56.7743 31.2893L54.8239 33.2401Z" fill="black"/>
      <path d="M21.6512 6.32287L25.5281 8.64955L23.1443 13.4172C22.957 13.7913 23.0452 14.2446 23.359 14.5214C23.6727 14.7982 24.1332 14.8288 24.4811 14.5966L29.5004 11.2486L34.5202 14.5948C34.8677 14.827 35.3286 14.7964 35.6424 14.5196C35.9561 14.2428 36.0439 13.7895 35.8566 13.4154L33.4728 8.64955L37.3501 6.32287C37.7053 6.10951 37.8741 5.68549 37.7633 5.28669C37.6526 4.88743 37.2894 4.61105 36.8752 4.61105H31.9685L30.357 0.580658C30.2175 0.230013 29.8781 0 29.5004 0C29.1232 0 28.7838 0.230013 28.6443 0.580658L27.0329 4.61105H22.1256C21.7115 4.61105 21.3483 4.88743 21.2375 5.28669C21.1273 5.68549 21.2961 6.10951 21.6512 6.32287ZM27.6567 6.45475C28.0339 6.4552 28.3729 6.22564 28.5133 5.8759L29.5004 3.40517L30.488 5.8759C30.628 6.22564 30.9674 6.4552 31.3441 6.45475H33.5475L31.7916 7.50849C31.3806 7.75606 31.2285 8.27685 31.4409 8.70671L32.6544 11.1333L30.0122 9.37155C29.7025 9.16494 29.2988 9.16494 28.9891 9.37155L26.3469 11.1333L27.5649 8.71032C27.7774 8.2809 27.6252 7.75966 27.2143 7.51209L25.4538 6.45475H27.6567Z" fill="black"/>
      <path d="M10.07 9.3927L9.24762 12.6835C9.1576 13.0337 9.28003 13.4042 9.56136 13.6311C9.84268 13.8579 10.2307 13.8993 10.5539 13.7373L13.829 12.0948L17.1045 13.7373C17.2328 13.7994 17.3737 13.8309 17.5164 13.8296C17.8004 13.8296 18.0687 13.6986 18.2433 13.4749C18.418 13.2511 18.4796 12.959 18.4108 12.6835L17.5884 9.3927L19.2052 6.96654C19.3943 6.68341 19.4118 6.31972 19.2511 6.01993C19.0909 5.72015 18.7785 5.5329 18.4382 5.5329H16.166L14.5987 3.17741C14.4182 2.9357 14.1337 2.79346 13.8317 2.79346C13.5301 2.79346 13.2456 2.9357 13.0651 3.17741L11.4924 5.5329H9.21971C8.87987 5.5329 8.56749 5.72015 8.40679 6.01993C8.24655 6.31972 8.26411 6.68341 8.45271 6.96654L10.07 9.3927ZM11.9853 7.3766C12.2936 7.3766 12.5812 7.22266 12.7523 6.96654L13.829 5.34835L14.9057 6.96339C15.0763 7.22086 15.3643 7.37615 15.6727 7.3766H16.7156L15.8275 8.70851C15.683 8.92547 15.6367 9.1933 15.7006 9.44626L16.1354 11.1882L14.2413 10.2407C13.9816 10.1111 13.6764 10.1111 13.4171 10.2407L11.5243 11.1864L11.9596 9.44446C12.0235 9.1915 11.9772 8.92367 11.8322 8.70671L10.9428 7.3766H11.9853Z" fill="black"/>
      <path d="M41.4129 9.3927L40.5905 12.6835C40.5005 13.0337 40.6229 13.4042 40.9043 13.6311C41.1856 13.8579 41.5736 13.8993 41.8968 13.7373L45.1719 12.0948L48.4474 13.7373C48.5757 13.7994 48.7166 13.8309 48.8593 13.8296C49.1433 13.8296 49.4116 13.6986 49.5862 13.4749C49.7609 13.2511 49.8225 12.959 49.7537 12.6835L48.9313 9.3927L50.5481 6.96654C50.7372 6.68341 50.7547 6.31972 50.594 6.01993C50.4338 5.72015 50.1214 5.5329 49.7811 5.5329H47.5089L45.9416 3.17741C45.7611 2.9357 45.4766 2.79346 45.1746 2.79346C44.873 2.79346 44.5885 2.9357 44.408 3.17741L42.8353 5.5329H40.5626C40.2228 5.5329 39.9104 5.72015 39.7497 6.01993C39.5894 6.31972 39.607 6.68341 39.7956 6.96654L41.4129 9.3927ZM43.3282 7.3766C43.6365 7.3766 43.9241 7.22266 44.0952 6.96654L45.1719 5.34835L46.2486 6.96339C46.4192 7.22086 46.7072 7.37615 47.0156 7.3766H48.0585L47.1704 8.70851C47.0259 8.92547 46.9796 9.1933 47.0435 9.44626L47.4783 11.1882L45.5842 10.2407C45.3245 10.1111 45.0193 10.1111 44.76 10.2407L42.8672 11.1864L43.3025 9.44446C43.3664 9.1915 43.3201 8.92367 43.1751 8.70671L42.2857 7.3766H43.3282Z" fill="black"/>
    </g>
  </symbol>

  <symbol id="social-tw" viewBox="0 0 60 60" preserveAspectRatio="xMidYMid">
    <g fill="currentColor">
      <rect y="-0.000488281" width="60" height="60" fill="#AD001B"/>
      <path d="M0 0L27.6943 0L0 21L0 0Z" fill="white"/>
      <path d="M42 27.3141C41.1429 27.6795 40.1633 27.9231 39.1837 28.0449C40.1633 27.4359 41.0204 26.4615 41.3878 25.3654C40.4082 25.9744 39.4286 26.3397 38.2041 26.5833C37.3469 25.609 36 25 34.6531 25C31.9592 25 29.7551 27.1923 29.7551 29.8718C29.7551 30.2372 29.7551 30.6026 29.8776 30.9679C25.8367 30.7243 22.1633 28.7756 19.7143 25.8526C19.3469 26.5833 19.102 27.4359 19.102 28.2885C19.102 29.9936 19.9592 31.4551 21.3061 32.3077C20.449 32.3077 19.7143 32.0641 19.102 31.6987C19.102 34.0128 20.8163 36.0833 23.0204 36.4487C22.6531 36.5705 22.1633 36.5705 21.6735 36.5705C21.3061 36.5705 21.0612 36.5705 20.6939 36.4487C21.3061 38.3974 23.1429 39.859 25.3469 39.859C23.6327 41.1987 21.551 41.9295 19.2245 41.9295C18.8571 41.9295 18.4898 41.9295 18 41.8077C20.2041 43.1474 22.7755 44 25.5918 44C34.6531 44 39.551 36.5705 39.551 30.1154V29.5064C40.5306 29.141 41.3878 28.2885 42 27.3141Z" fill="white"/>
    </g>
  </symbol>
  
  <symbol id="social-fb" viewBox="0 0 60 60" preserveAspectRatio="xMidYMid">
    <g fill="currentColor">
      <rect y="-0.000488281" width="60" height="60" fill="#AD001B"/>
      <path d="M0 0L27.6943 0L0 21L0 0Z" fill="white"/>
      <path d="M42 26.9793C42 24.8653 40.1347 23 38.0207 23H21.9793C19.8653 23 18 24.8653 18 26.9793V43.0207C18 45.1347 19.8653 47 21.9793 47H30.0622V37.9223H27.0777V33.943H30.0622V32.3264C30.0622 29.5907 32.0518 27.228 34.5389 27.228H37.772V31.2072H34.5389C34.1658 31.2072 33.7927 31.5803 33.7927 32.3264V33.943H37.772V37.9223H33.7927V47H38.0207C40.1347 47 42 45.1347 42 43.0207V26.9793Z" fill="white"/>
    </g>
  </symbol>

  <symbol id="social-in" viewBox="0 0 60 60" preserveAspectRatio="xMidYMid">
    <g fill="currentColor">
      <rect y="-0.000488281" width="60" height="60" fill="#AD001B"/>
      <path d="M0 0L27.6943 0L0 21L0 0Z" fill="white"/>
      <path d="M38.5846 23H21.4154C19.4769 23 18 24.4769 18 26.4154V43.5846C18 45.5231 19.4769 47 21.4154 47H38.5846C40.5231 47 42 45.5231 42 43.5846V26.4154C42 24.4769 40.5231 23 38.5846 23ZM30 42.2C33.9692 42.2 37.2 39.0615 37.2 35.2769C37.2 34.6308 37.1077 33.8923 36.9231 33.3385H38.9538V43.1231C38.9538 43.5846 38.5846 44.0462 38.0308 44.0462H21.9692C21.5077 44.0462 21.0462 43.6769 21.0462 43.1231V33.2462H23.1692C22.9846 33.8923 22.8923 34.5385 22.8923 35.1846C22.8 39.0615 26.0308 42.2 30 42.2ZM30 39.4308C27.4154 39.4308 25.3846 37.4 25.3846 34.9077C25.3846 32.4154 27.4154 30.3846 30 30.3846C32.5846 30.3846 34.6154 32.4154 34.6154 34.9077C34.6154 37.4923 32.5846 39.4308 30 39.4308ZM38.8615 29.5538C38.8615 30.1077 38.4 30.5692 37.8462 30.5692H35.2615C34.7077 30.5692 34.2462 30.1077 34.2462 29.5538V27.0615C34.2462 26.5077 34.7077 26.0462 35.2615 26.0462H37.8462C38.4 26.0462 38.8615 26.5077 38.8615 27.0615V29.5538Z" fill="white"/>
    </g>
  </symbol>

  <symbol id="arrow-up" viewBox="0 0 652.801 652.801" preserveAspectRatio="xMidYMid">
    <g fill="currentColor">
			<path d="M550.801,0H102C56.937,0,20.4,36.536,20.4,81.6v40.8h612V81.6C632.4,36.536,595.864,0,550.801,0z M20.4,571.199
				c0,45.064,36.537,81.602,81.6,81.602h448.8c45.063,0,81.6-36.537,81.6-81.602v-408h-612V571.199z M209.753,352.797
				L310.57,230.806c4.264-4.284,9.935-6.1,15.504-5.814c5.59-0.286,11.24,1.53,15.504,5.814l100.816,121.991
				c7.997,8.018,7.997,21.033,0,29.051c-7.996,8.018-20.971,8.018-28.968,0l-66.626-80.642v249.595c0,11.26-9.14,20.398-20.4,20.398
				s-20.4-9.139-20.4-20.398v-250.37l-67.3,81.417c-7.997,8.018-20.971,8.018-28.968,0
				C201.756,373.809,201.756,360.814,209.753,352.797z"/>
		</g>
  </symbol>

  <symbol id="hamburger-menu" viewBox="0 0 50 50" preserveAspectRatio="xMidYMid">
    <g fill="currentColor">
			<path d="M 0 7.5 L 0 12.5 L 50 12.5 L 50 7.5 Z M 0 22.5 L 0 27.5 L 50 27.5 L 50 22.5 Z M 0 37.5 L 0 42.5 L 50 42.5 L 50 37.5 Z"/>
		</g>
  </symbol>

  <symbol id="cross" viewBox="0 0 512 512" preserveAspectRatio="xMidYMid">
    <g fill="currentColor">
		<polygon points="512,59.076 452.922,0 256,196.922 59.076,0 0,59.076 196.922,256 0,452.922 59.076,512 256,315.076 452.922,512 
			512,452.922 315.076,256"/>
	  </g>
  </symbol>
  
</svg>

