<?xml version="1.0" encoding="iso-8859-1"?>
<!-- Generator: Adobe Illustrator 16.0.0, SVG Export Plug-In . SVG Version: 6.00 Build 0)  -->
<!DOCTYPE svg PUBLIC "-//W3C//DTD SVG 1.1//EN" "http://www.w3.org/Graphics/SVG/1.1/DTD/svg11.dtd">
<svg version="1.1" id="Capa_1" xmlns="http://www.w3.org/2000/svg" xmlns:xlink="http://www.w3.org/1999/xlink" x="0px" y="0px"
	 width="652.801px" height="652.801px" viewBox="0 0 652.801 652.801" style="enable-background:new 0 0 652.801 652.801;"
	 xml:space="preserve">
<g>
	<g id="_x37__37_">
		<g>
			<path d="M550.801,0H102C56.937,0,20.4,36.536,20.4,81.6v40.8h612V81.6C632.4,36.536,595.864,0,550.801,0z M20.4,571.199
				c0,45.064,36.537,81.602,81.6,81.602h448.8c45.063,0,81.6-36.537,81.6-81.602v-408h-612V571.199z M209.753,352.797
				L310.57,230.806c4.264-4.284,9.935-6.1,15.504-5.814c5.59-0.286,11.24,1.53,15.504,5.814l100.816,121.991
				c7.997,8.018,7.997,21.033,0,29.051c-7.996,8.018-20.971,8.018-28.968,0l-66.626-80.642v249.595c0,11.26-9.14,20.398-20.4,20.398
				s-20.4-9.139-20.4-20.398v-250.37l-67.3,81.417c-7.997,8.018-20.971,8.018-28.968,0
				C201.756,373.809,201.756,360.814,209.753,352.797z"/>
		</g>
	</g>
</g>
<g>
</g>
<g>
</g>
<g>
</g>
<g>
</g>
<g>
</g>
<g>
</g>
<g>
</g>
<g>
</g>
<g>
</g>
<g>
</g>
<g>
</g>
<g>
</g>
<g>
</g>
<g>
</g>
<g>
</g>
</svg>
