<svg width="50" height="50" viewBox="0 0 50 50" fill="none" xmlns="http://www.w3.org/2000/svg">
<g clip-path="url(#clip0_1_831)">
<path d="M1.04181 9.375H30.2082V40.625H1.04181V9.375Z" fill="#F891A1"/>
<path d="M1.04181 46.875C1.04181 48.0255 1.9745 48.9582 3.12502 48.9582H28.125C29.2755 48.9582 30.2082 48.0255 30.2082 46.875V40.625H1.04181V46.875Z" fill="white"/>
<path d="M30.2082 3.12495C30.2082 1.97444 29.2755 1.04175 28.125 1.04175H3.12502C1.9745 1.04175 1.04181 1.97444 1.04181 3.12495V9.37495H30.2082V3.12495Z" fill="white"/>
<path d="M21.875 31.25H26.0418V35.4168H21.875V31.25Z" fill="white"/>
<path d="M13.5418 31.25H17.7082V35.4168H13.5418V31.25Z" fill="white"/>
<path d="M5.20819 31.25H9.37499V35.4168H5.20819V31.25Z" fill="white"/>
<path d="M13.5418 22.9167H17.7082V27.0832H13.5418V22.9167Z" fill="white"/>
<path d="M5.20819 22.9167H9.37499V27.0832H5.20819V22.9167Z" fill="white"/>
<path d="M5.20819 14.5833H9.37499V18.75H5.20819V14.5833Z" fill="white"/>
<path d="M13.5418 14.5833H17.7082V18.75H13.5418V14.5833Z" fill="white"/>
<path d="M21.875 14.5833H26.0418V18.75H21.875V14.5833Z" fill="white"/>
<path d="M48.9582 11.4582V38.5418C48.9548 39.6908 48.024 40.6216 46.875 40.625H32.2918C31.1424 40.6216 30.2116 39.6908 30.2082 38.5418V27.0832H23.9582L30.2082 20.8332V11.4582C30.2116 10.3092 31.1424 9.37843 32.2918 9.375H46.875C48.024 9.37843 48.9548 10.3092 48.9582 11.4582Z" fill="white"/>
<path d="M29.1668 46.875C29.1668 47.4503 28.7003 47.9168 28.125 47.9168H3.125C2.54974 47.9168 2.08321 47.4503 2.08321 46.875V41.6668H27.0832V39.5832H2.08321V10.4168H27.0832V8.33321H2.08321V3.125C2.08321 2.54974 2.54974 2.08321 3.125 2.08321H28.125C28.7003 2.08321 29.1668 2.54974 29.1668 3.125V6.25H31.25V3.125C31.25 1.39923 29.8508 0 28.125 0H3.125C1.39923 0 0 1.39923 0 3.125V46.875C0 48.6008 1.39923 50 3.125 50H28.125C29.8508 50 31.25 48.6008 31.25 46.875V43.75H29.1668V46.875Z" fill="black"/>
<path d="M12.5 4.16675H18.75V6.24995H12.5V4.16675Z" fill="black"/>
<path d="M12.5 43.75H18.75V45.8332H12.5V43.75Z" fill="black"/>
<path d="M10.4168 14.5832C10.4168 14.0079 9.95027 13.5417 9.37501 13.5417H5.20822C4.63296 13.5417 4.16681 14.0079 4.16681 14.5832V18.75C4.16681 19.3252 4.63296 19.7917 5.20822 19.7917H9.37501C9.95027 19.7917 10.4168 19.3252 10.4168 18.75V14.5832ZM8.33322 17.7082H6.25001V15.625H8.33322V17.7082Z" fill="black"/>
<path d="M18.75 14.5832C18.75 14.0079 18.2835 13.5417 17.7082 13.5417H13.5418C12.9665 13.5417 12.5 14.0079 12.5 14.5832V18.75C12.5 19.3252 12.9665 19.7917 13.5418 19.7917H17.7082C18.2835 19.7917 18.75 19.3252 18.75 18.75V14.5832ZM16.6668 17.7082H14.5832V15.625H16.6668V17.7082Z" fill="black"/>
<path d="M27.0832 18.75V14.5832C27.0832 14.0079 26.617 13.5417 26.0418 13.5417H21.875C21.2997 13.5417 20.8332 14.0079 20.8332 14.5832V18.75C20.8332 19.3252 21.2997 19.7917 21.875 19.7917H26.0418C26.617 19.7917 27.0832 19.3252 27.0832 18.75ZM25 17.7082H22.9168V15.625H25V17.7082Z" fill="black"/>
<path d="M10.4168 22.9168C10.4168 22.3415 9.95027 21.875 9.37501 21.875H5.20822C4.63296 21.875 4.16681 22.3415 4.16681 22.9168V27.0832C4.16681 27.6585 4.63296 28.125 5.20822 28.125H9.37501C9.95027 28.125 10.4168 27.6585 10.4168 27.0832V22.9168ZM8.33322 26.0418H6.25001V23.9582H8.33322V26.0418Z" fill="black"/>
<path d="M18.75 22.9168C18.75 22.3415 18.2835 21.875 17.7082 21.875H13.5418C12.9665 21.875 12.5 22.3415 12.5 22.9168V27.0832C12.5 27.6585 12.9665 28.125 13.5418 28.125H17.7082C18.2835 28.125 18.75 27.6585 18.75 27.0832V22.9168ZM16.6668 26.0418H14.5832V23.9582H16.6668V26.0418Z" fill="black"/>
<path d="M9.37501 30.2083H5.20822C4.63296 30.2083 4.16681 30.6748 4.16681 31.25V35.4168C4.16681 35.9921 4.63296 36.4582 5.20822 36.4582H9.37501C9.95027 36.4582 10.4168 35.9921 10.4168 35.4168V31.25C10.4168 30.6748 9.95027 30.2083 9.37501 30.2083V30.2083ZM8.33322 34.375H6.25001V32.2918H8.33322V34.375Z" fill="black"/>
<path d="M17.7082 30.2083H13.5418C12.9665 30.2083 12.5 30.6748 12.5 31.25V35.4168C12.5 35.9921 12.9665 36.4582 13.5418 36.4582H17.7082C18.2835 36.4582 18.75 35.9921 18.75 35.4168V31.25C18.75 30.6748 18.2835 30.2083 17.7082 30.2083V30.2083ZM16.6668 34.375H14.5832V32.2918H16.6668V34.375Z" fill="black"/>
<path d="M20.8332 31.25V35.4168C20.8332 35.9921 21.2997 36.4582 21.875 36.4582H26.0418C26.617 36.4582 27.0832 35.9921 27.0832 35.4168V31.25C27.0832 30.6748 26.617 30.2083 26.0418 30.2083H21.875C21.2997 30.2083 20.8332 30.6748 20.8332 31.25V31.25ZM22.9168 32.2918H25V34.375H22.9168V32.2918Z" fill="black"/>
<path d="M46.875 8.33325H32.2918C30.5656 8.33325 29.1668 9.73248 29.1668 11.4583V20.4022L23.222 26.347C22.924 26.6449 22.8352 27.0928 22.9961 27.4819C23.1575 27.871 23.5371 28.125 23.9582 28.125H29.1668V38.5418C29.1668 40.2676 30.5656 41.6668 32.2918 41.6668H46.875C48.6008 41.6668 50 40.2676 50 38.5418V11.4583C50 9.73248 48.6008 8.33325 46.875 8.33325V8.33325ZM47.9168 38.5418C47.9168 39.1171 47.4503 39.5833 46.875 39.5833H32.2918C31.7165 39.5833 31.25 39.1171 31.25 38.5418V27.0833C31.25 26.508 30.7835 26.0418 30.2082 26.0418H26.4729L30.9448 21.5699C31.1401 21.3746 31.25 21.1094 31.25 20.8333V11.4583C31.25 10.883 31.7165 10.4168 32.2918 10.4168H46.875C47.4503 10.4168 47.9168 10.883 47.9168 11.4583V38.5418Z" fill="black"/>
<path d="M37.5 21.875C37.7762 21.875 38.0413 21.7651 38.2366 21.5698L44.4866 15.3198L43.0134 13.8469L37.5 19.3603L36.153 18.0133L34.6802 19.4866L36.7634 21.5698C36.9587 21.7651 37.2238 21.875 37.5 21.875V21.875Z" fill="black"/>
<path d="M36.4582 26.0417H44.7918V28.125H36.4582V26.0417Z" fill="black"/>
<path d="M34.375 30.2083H44.7918V32.2918H34.375V30.2083Z" fill="black"/>
<path d="M34.375 34.375H44.7918V36.4582H34.375V34.375Z" fill="black"/>
</g>
<defs>
<clipPath id="clip0_1_831">
<rect width="50" height="50" fill="white"/>
</clipPath>
</defs>
</svg>
