<svg width="58" height="58" viewBox="0 0 58 58" fill="none" xmlns="http://www.w3.org/2000/svg">
<g clip-path="url(#clip0_1_898)">
<path d="M30.2085 49.5415V56.7915H15.7085V49.5415H30.2085Z" fill="#F891A1"/>
<path d="M44.7085 42.2915V47.125C44.7045 48.4578 43.6248 49.5375 42.2915 49.5415H3.62502C2.29219 49.5375 1.21248 48.4578 1.2085 47.125V42.2915H44.7085Z" fill="white"/>
<path d="M56.7915 3.62502V32.625C56.7875 33.9578 55.7078 35.0376 54.375 35.0415H37.4585C36.1252 35.0376 35.0455 33.9578 35.0415 32.625V3.62502C35.0455 2.29219 36.1252 1.21248 37.4585 1.2085H54.375C55.7078 1.21248 56.7875 2.29219 56.7915 3.62502Z" fill="white"/>
<path d="M6.0415 21.75H15.7085V31.4165H6.0415V21.75Z" fill="white"/>
<path d="M15.7085 31.4165V21.75H6.04153V31.4165H15.7085ZM35.0415 15.7085V32.625C35.0455 33.9578 36.1252 35.0376 37.4585 35.0415H44.7085V42.2915H1.2085V18.125C1.21248 16.7922 2.29219 15.7125 3.62502 15.7085H35.0415Z" fill="#F891A1"/>
<path d="M35.0415 6.0415H56.7915V26.5835H35.0415V6.0415Z" fill="white"/>
<path d="M43.5 41.0835H2.41652V18.125C2.41652 17.4577 2.9577 16.9165 3.625 16.9165H31.4165V14.5H3.625C1.62311 14.5 0 16.1231 0 18.125V47.125C0 49.1269 1.62311 50.75 3.625 50.75H14.5V55.5835H12.0835V58H33.8335V55.5835H31.4165V50.75H42.2915C44.2939 50.75 45.9165 49.1269 45.9165 47.125V38.6665H43.5V41.0835ZM29 55.5835H16.9165V50.75H29V55.5835ZM42.2915 48.3335H3.625C2.9577 48.3335 2.41652 47.7923 2.41652 47.125V43.5H43.5V47.125C43.5 47.7923 42.9588 48.3335 42.2915 48.3335Z" fill="black"/>
<path d="M54.375 0H37.4585C35.4562 0 33.8335 1.62311 33.8335 3.625V32.625C33.8335 34.6269 35.4562 36.25 37.4585 36.25H54.375C56.3769 36.25 58 34.6269 58 32.625V3.625C58 1.62311 56.3769 0 54.375 0ZM55.5835 32.625C55.5835 33.2923 55.0423 33.8335 54.375 33.8335H37.4585C36.7912 33.8335 36.25 33.2923 36.25 32.625V3.625C36.25 2.9577 36.7912 2.41652 37.4585 2.41652H54.375C55.0423 2.41652 55.5835 2.9577 55.5835 3.625V32.625Z" fill="black"/>
<path d="M43.5 29H48.3335V31.4165H43.5V29Z" fill="black"/>
<path d="M15.7085 32.625C16.3758 32.625 16.9165 32.0838 16.9165 31.4165V21.75C16.9165 21.0827 16.3758 20.5415 15.7085 20.5415H6.04153C5.37424 20.5415 4.8335 21.0827 4.8335 21.75V31.4165C4.8335 32.0838 5.37424 32.625 6.04153 32.625H15.7085ZM7.25002 22.9585H14.5V30.2085H7.25002V22.9585Z" fill="black"/>
<path d="M19.3335 20.5415H31.4165V22.9585H19.3335V20.5415Z" fill="black"/>
<path d="M19.3335 25.375H31.4165V27.7915H19.3335V25.375Z" fill="black"/>
<path d="M19.3335 30.2085H31.4165V32.625H19.3335V30.2085Z" fill="black"/>
<path d="M4.8335 35.0415H31.4165V37.4585H4.8335V35.0415Z" fill="black"/>
<path d="M50.75 4.8335H53.1665V7.25001H50.75V4.8335Z" fill="black"/>
<path d="M50.75 9.6665H53.1665V12.0835H50.75V9.6665Z" fill="black"/>
<path d="M45.9165 4.8335H48.3335V7.25001H45.9165V4.8335Z" fill="black"/>
</g>
<defs>
<clipPath id="clip0_1_898">
<rect width="58" height="58" fill="white"/>
</clipPath>
</defs>
</svg>
