<svg width="60" height="60" viewBox="0 0 60 60" fill="none" xmlns="http://www.w3.org/2000/svg">
<g clip-path="url(#clip0_1_863)">
<path d="M52.5782 18.75C52.5782 17.3694 51.459 16.2501 50.0779 16.2501H10.0781C8.69748 16.2501 7.57825 17.3694 7.57825 18.75V43.7498H52.5782V18.75Z" fill="#F891A1"/>
<path d="M7.57825 43.7499V48.75C7.57825 50.1306 8.69748 51.2499 10.0781 51.2499H50.0779C51.459 51.2499 52.5782 50.1306 52.5782 48.75V43.7499H7.57825Z" fill="white"/>
<path d="M22.5782 51.2499H37.5782V58.7499H22.5782V51.2499Z" fill="#F891A1"/>
<path d="M45.0782 16.2501V18.75H41.0408C40.7615 19.9832 40.2708 21.1592 39.5906 22.2249L42.453 25.0872L38.9154 28.6248L36.053 25.7625C34.9873 26.4427 33.8113 26.9334 32.5781 27.2126V31.2501H27.5779V27.2126C26.3447 26.9334 25.1692 26.4427 24.1031 25.7625L21.2407 28.6248L17.7031 25.0872L20.5655 22.2249C19.8852 21.1592 19.395 19.9832 19.1157 18.75H15.0782V13.7498H19.1157C19.395 12.5166 19.8852 11.3411 20.5655 10.2749L17.7031 7.41254L21.2407 3.87494L24.1031 6.73734C25.1692 6.0571 26.3447 5.56683 27.5779 5.2876V1.25012H32.5781V5.2876C33.8113 5.56683 34.9873 6.0571 36.053 6.73734L38.9154 3.87494L42.453 7.41254L39.5906 10.2749C40.2708 11.3411 40.7615 12.5166 41.0408 13.7498H45.0782V16.2501ZM33.8282 16.2501C33.8282 14.1787 32.1492 12.5001 30.0782 12.5001C28.0069 12.5001 26.3282 14.1787 26.3282 16.2501C26.3282 18.321 28.0069 20.0001 30.0782 20.0001C32.1492 20.0001 33.8282 18.321 33.8282 16.2501Z" fill="white"/>
<path d="M50.078 15H48.8283V17.4998H50.078C50.7683 17.4998 51.3281 18.0597 51.3281 18.75V42.5002H41.3283V45H51.3281V48.75C51.3281 49.4403 50.7683 50.0002 50.078 50.0002H10.0781C9.38782 50.0002 8.82797 49.4403 8.82797 48.75V45H18.8283V42.5002H8.82797V18.75C8.82797 18.0597 9.38782 17.4998 10.0781 17.4998H11.3283V15H10.0781C8.0072 15 6.32812 16.6791 6.32812 18.75V48.75C6.32812 50.8209 8.0072 52.5 10.0781 52.5H21.3281V57.5002H18.8283V60H41.3283V57.5002H38.828V52.5H50.078C52.1494 52.5 53.828 50.8209 53.828 48.75V18.75C53.828 16.6791 52.1494 15 50.078 15ZM36.3281 57.5002H23.828V52.5H36.3281V57.5002Z" fill="black"/>
<path d="M15.0783 20.0002H18.1604C18.3797 20.6978 18.6612 21.3739 19.0018 22.0212L16.8192 24.2038C16.3312 24.6918 16.3312 25.4832 16.8192 25.9712L20.3568 29.5088C20.8452 29.9968 21.6362 29.9968 22.1242 29.5088L24.3068 27.3262C24.9541 27.6668 25.6306 27.9483 26.3283 28.1676V31.2502C26.3283 31.9405 26.8877 32.4998 27.578 32.4998H32.5781C33.2684 32.4998 33.8283 31.9405 33.8283 31.2502V28.1676C34.5259 27.9483 35.202 27.6668 35.8493 27.3262L38.0319 29.5088C38.5199 29.9968 39.3114 29.9968 39.7993 29.5088L43.3369 25.9712C43.8249 25.4832 43.8249 24.6918 43.3369 24.2038L41.1543 22.0212C41.4949 21.3739 41.7764 20.6978 41.9957 20.0002H45.0783C45.7686 20.0002 46.328 19.4403 46.328 18.75V13.7498C46.328 13.0595 45.7686 12.5002 45.0783 12.5002H41.9957C41.7764 11.8025 41.4949 11.1259 41.1543 10.4787L43.3369 8.29605C43.8249 7.80807 43.8249 7.01706 43.3369 6.52863L39.7993 2.99103C39.3114 2.50305 38.5199 2.50305 38.0319 2.99103L35.8493 5.17365C35.202 4.83307 34.5259 4.55154 33.8283 4.33228V1.25015C33.8283 0.559845 33.2684 0 32.5781 0H27.578C26.8877 0 26.3283 0.559845 26.3283 1.25015V4.33228C25.6306 4.55154 24.9541 4.83307 24.3068 5.17365L22.1242 2.99103C21.6362 2.50305 20.8452 2.50305 20.3568 2.99103L16.8192 6.52863C16.3312 7.01706 16.3312 7.80807 16.8192 8.29605L19.0018 10.4787C18.6612 11.1259 18.3797 11.8025 18.1604 12.5002H15.0783C14.388 12.5002 13.8281 13.0595 13.8281 13.7498V18.75C13.8281 19.4403 14.388 20.0002 15.0783 20.0002ZM16.328 15H19.1158C19.6985 15.0005 20.2039 14.5981 20.3343 14.03C20.5801 12.9373 21.0141 11.8954 21.617 10.9511C21.936 10.4576 21.8678 9.80804 21.4531 9.39102L19.4705 7.41257L21.2407 5.6424L23.2191 7.62497C23.6353 8.04108 24.2848 8.11066 24.7792 7.79251C25.7236 7.18964 26.7654 6.75568 27.8581 6.50986C28.4276 6.37939 28.83 5.87173 28.8281 5.28763V2.49985H31.328V5.28763C31.328 5.87036 31.7303 6.37573 32.298 6.5062C33.3911 6.75201 34.4325 7.18597 35.3769 7.78885C35.8708 8.10791 36.5199 8.0397 36.937 7.62497L38.9154 5.6424L40.6856 7.41257L38.703 9.39102C38.2874 9.80713 38.2173 10.4567 38.5355 10.9511C39.142 11.8945 39.5792 12.9364 39.8282 14.03C39.9582 14.5958 40.4604 14.9973 41.0408 15H43.8281V17.4998H41.0408C40.4581 17.4998 39.9522 17.9022 39.8218 18.4698C39.576 19.563 39.142 20.6044 38.5396 21.5488C38.2214 22.0436 38.291 22.6927 38.7067 23.1088L40.6856 25.0873L38.9154 26.8575L36.937 24.8749C36.5208 24.4592 35.8717 24.3892 35.3769 24.7073C34.4334 25.3139 33.3916 25.751 32.298 26.0001C31.7326 26.1301 31.3307 26.6322 31.328 27.2127V30H28.8281V27.2127C28.8286 26.6299 28.4262 26.1241 27.8581 25.9937C26.7654 25.7478 25.7236 25.3139 24.7792 24.7115C24.2848 24.3933 23.6353 24.4629 23.2191 24.8785L21.2407 26.8575L19.4705 25.0873L21.4531 23.1088C21.8692 22.6927 21.9388 22.0436 21.6206 21.5488C21.0146 20.6053 20.5769 19.5634 20.3279 18.4698C20.1979 17.9045 19.6957 17.5026 19.1158 17.4998H16.328V15Z" fill="black"/>
<path d="M30.0783 21.2498C32.8395 21.2498 35.078 19.0114 35.078 16.2502C35.078 13.4885 32.8395 11.25 30.0783 11.25C27.3166 11.25 25.0781 13.4885 25.0781 16.2502C25.0781 19.0114 27.3166 21.2498 30.0783 21.2498ZM30.0783 13.7498C31.4589 13.7498 32.5781 14.8691 32.5781 16.2502C32.5781 17.6308 31.4589 18.75 30.0783 18.75C28.6972 18.75 27.578 17.6308 27.578 16.2502C27.578 14.8691 28.6972 13.7498 30.0783 13.7498Z" fill="black"/>
<path d="M28.8281 35.0001H31.328V42.5001H28.8281V35.0001Z" fill="black"/>
<path d="M28.8281 45H31.328V47.4998H28.8281V45Z" fill="black"/>
<path d="M36.3281 32.4999H38.828V39.9999H36.3281V32.4999Z" fill="black"/>
<path d="M36.3281 42.5001H38.828V45H36.3281V42.5001Z" fill="black"/>
<path d="M21.3281 32.4999H23.828V39.9999H21.3281V32.4999Z" fill="black"/>
<path d="M21.3281 42.5001H23.828V45H21.3281V42.5001Z" fill="black"/>
</g>
<defs>
<clipPath id="clip0_1_863">
<rect width="60" height="60" fill="white"/>
</clipPath>
</defs>
</svg>
