<svg width="58" height="58" viewBox="0 0 58 58" fill="none" xmlns="http://www.w3.org/2000/svg">
<g clip-path="url(#clip0_1_814)">
<path d="M1.21448 6.04712H42.2932V56.7918H1.21448V6.04712Z" fill="white"/>
<path d="M37.4607 51.9589H13.2962L6.047 44.7096V10.8801H37.4607V51.9589Z" fill="white"/>
<path d="M13.2962 44.7096V51.9588L6.047 44.7096H13.2962Z" fill="#F891A1"/>
<path d="M33.4613 43.4893L27.7947 45.9179L30.2234 40.2513L33.4613 43.4893Z" fill="white"/>
<path d="M56.1271 17.5856C57.0134 18.4829 57.0134 19.9262 56.1271 20.8235L33.4613 43.4893L30.2234 40.2514L52.8892 17.5856C53.7887 16.7037 55.2281 16.7037 56.1271 17.5856Z" fill="#F891A1"/>
<path d="M31.4193 10.8801V13.2963H12.0883V8.46335C12.0923 7.13067 13.1715 6.05107 14.5046 6.04709H16.9209C16.9209 3.37818 19.0845 1.21411 21.7538 1.21411C24.4227 1.21411 26.5868 3.37818 26.5868 6.04709H29.0031C30.3358 6.05107 31.4154 7.13067 31.4193 8.46335V10.8801Z" fill="#F891A1"/>
<path d="M56.9815 21.6779C58.3434 20.3076 58.3434 18.0944 56.9815 16.7241C55.609 15.3786 53.4122 15.3786 52.0396 16.7241L29.3654 39.3935C29.2575 39.5032 29.1721 39.6324 29.1128 39.7744L29.1044 39.7935L26.6881 45.437C26.4934 45.891 26.5952 46.4179 26.9443 46.767C27.2934 47.1166 27.8203 47.2179 28.2743 47.0237L33.9263 44.607H33.9387C34.0798 44.5472 34.2086 44.4614 34.3179 44.3534L54.4962 24.1605C54.8763 24.5844 54.8608 25.2308 54.4612 25.6357L43.9378 36.1591L45.6461 37.8679L56.1696 27.344C57.5106 25.9936 57.5283 23.8194 56.2094 22.4473L56.9815 21.6779ZM30.6304 42.3672L31.3459 43.0823L30.0902 43.6225L30.6304 42.3672ZM33.4613 41.781L31.9317 40.2514L53.7374 18.4457C54.1648 18.0302 54.8453 18.0302 55.2731 18.4457C55.6864 18.8718 55.6864 19.5492 55.2731 19.9753L33.4613 41.781Z" fill="black"/>
<path d="M41.0853 55.5834H2.42237V7.25545H8.4637V4.83875H1.21446C0.546788 4.83875 0.00610352 5.37987 0.00610352 6.0471V56.7918C0.00610352 57.459 0.546788 58.0002 1.21446 58.0002H42.2932C42.9604 58.0002 43.5016 57.459 43.5016 56.7918V39.877H41.0853V55.5834Z" fill="black"/>
<path d="M41.0853 22.9619H43.5015V6.0471C43.5015 5.37987 42.9604 4.83875 42.2932 4.83875H35.0439V7.25545H41.0853V22.9619Z" fill="black"/>
<path d="M6.04702 9.6717C5.3798 9.6717 4.83911 10.2128 4.83911 10.8801V44.7096C4.83911 45.0303 4.9661 45.3374 5.19308 45.564L12.4423 52.8132C12.6689 53.0397 12.9759 53.1672 13.2963 53.1672H37.4607C38.1279 53.1672 38.6686 52.626 38.6686 51.9588V44.7096H36.2524V50.7509H14.5046V44.7096C14.5046 44.0423 13.9635 43.5017 13.2963 43.5017H7.25538V12.088H10.88V13.2963C10.88 13.9636 11.4207 14.5047 12.0884 14.5047H31.4194C32.0866 14.5047 32.6277 13.9636 32.6277 13.2963V12.088H36.2524V26.5865H38.6686V10.8801C38.6686 10.2128 38.1279 9.6717 37.4607 9.6717H32.6277V8.46335C32.6277 6.46167 31.0048 4.83873 29.0031 4.83873H27.674C27.1023 2.02336 24.6267 0 21.7539 0C18.881 0 16.4054 2.02336 15.8338 4.83873H14.5046C12.5029 4.83873 10.88 6.46167 10.88 8.46335V9.6717H6.04702ZM12.0884 49.0426L8.96371 45.9179H12.0884V49.0426ZM13.2963 8.46335C13.2963 7.79612 13.8374 7.25544 14.5046 7.25544H16.9209C17.5881 7.25544 18.1292 6.71431 18.1292 6.04708C18.1292 4.0454 19.7522 2.42246 21.7539 2.42246C23.7555 2.42246 25.3785 4.0454 25.3785 6.04708C25.3785 6.71431 25.9192 7.25544 26.5868 7.25544H29.0031C29.6703 7.25544 30.2115 7.79612 30.2115 8.46335V12.088H13.2963V8.46335Z" fill="black"/>
<path d="M12.0883 19.3373H31.4193V21.754H12.0883V19.3373Z" fill="black"/>
<path d="M12.0883 25.3785H31.4193V27.7948H12.0883V25.3785Z" fill="black"/>
<path d="M12.0883 31.4196H31.4193V33.8358H12.0883V31.4196Z" fill="black"/>
</g>
<defs>
<clipPath id="clip0_1_814">
<rect width="58" height="58" fill="white"/>
</clipPath>
</defs>
</svg>
