<svg width="54" height="54" viewBox="0 0 54 54" fill="none" xmlns="http://www.w3.org/2000/svg">
<g clip-path="url(#clip0_1_796)">
<path d="M1.12512 10.125V37.125C1.12512 38.3676 2.13243 39.3749 3.37498 39.3749H43.875C45.1175 39.3749 46.1248 38.3676 46.1248 37.125V10.125H1.12512Z" fill="white"/>
<path d="M46.1248 3.37498C46.1248 2.13243 45.1175 1.12512 43.875 1.12512H3.37498C2.13243 1.12512 1.12512 2.13243 1.12512 3.37498V10.125H46.1248V3.37498Z" fill="#F891A1"/>
<path d="M52.8749 39.3749V32.6249H47.8968C47.6369 31.7008 47.2694 30.8101 46.8022 29.9713L50.3189 26.4545L45.5456 21.6808L42.0289 25.2C41.1901 24.732 40.2994 24.3637 39.3749 24.1033V19.1249H32.6249V24.1033C31.7008 24.3633 30.8101 24.7304 29.9713 25.1976L26.4545 21.6808L21.6808 26.4545L25.2 29.9713C24.732 30.8097 24.3637 31.7004 24.1033 32.6249H19.1249V39.3749H24.1033C24.3633 40.2994 24.7304 41.1901 25.1976 42.0289L21.6808 45.5456L26.4545 50.3189L29.9713 46.8001C30.8097 47.2681 31.7004 47.636 32.6249 47.8968V52.8749H39.3749V47.8968C40.2994 47.6369 41.1901 47.2694 42.0289 46.8022L45.5456 50.3189L50.3189 45.5456L46.8001 42.0289C47.2681 41.1901 47.636 40.2994 47.8968 39.3749H52.8749ZM35.9999 41.6252C32.8935 41.6252 30.375 39.1067 30.375 35.9999C30.375 32.8935 32.8935 30.375 35.9999 30.375C39.1067 30.375 41.6252 32.8935 41.6252 35.9999C41.6252 39.1067 39.1067 41.6252 35.9999 41.6252Z" fill="#F891A1"/>
<path d="M1.12514 11.2501H42.7499V8.99986H2.24986V3.375C2.24986 2.75372 2.75372 2.24986 3.375 2.24986H43.875C44.4963 2.24986 45.0001 2.75372 45.0001 3.375V18.0001H47.25V3.375C47.25 1.51117 45.7388 0 43.875 0H3.375C1.51117 0 0 1.51117 0 3.375V10.125C0 10.7463 0.50386 11.2501 1.12514 11.2501Z" fill="black"/>
<path d="M4.50012 4.50012H6.74998V6.74998H4.50012V4.50012Z" fill="black"/>
<path d="M8.99988 4.50012H11.2502V6.74998H8.99988V4.50012Z" fill="black"/>
<path d="M13.5 4.50012H15.7499V6.74998H13.5V4.50012Z" fill="black"/>
<path d="M52.8749 31.5001H48.7204C48.563 31.0527 48.3826 30.6144 48.1794 30.1859L51.1157 27.2497C51.5549 26.8105 51.5549 26.0982 51.1157 25.659L46.342 20.8857C45.9028 20.4465 45.1909 20.4465 44.7513 20.8857L41.8151 23.8219C41.3866 23.618 40.9474 23.4371 40.5 23.2798V19.1249C40.5 18.5036 39.9961 18.0001 39.3749 18.0001H32.6249C32.0036 18.0001 31.5001 18.5036 31.5001 19.1249V23.2798C31.0527 23.4367 30.6144 23.6176 30.1859 23.8207L27.2497 20.8845C26.8105 20.4453 26.0982 20.4453 25.659 20.8845L20.8857 25.6577C20.4465 26.0973 20.4465 26.8092 20.8857 27.2484L23.8219 30.1851C23.618 30.6135 23.4371 31.0523 23.2798 31.5001H19.1249C18.5036 31.5001 18.0001 32.0036 18.0001 32.6249V35.9999H20.25V33.75H24.1033C24.6064 33.75 25.048 33.4159 25.1852 32.9322C25.4217 32.0918 25.7554 31.2818 26.1797 30.5192C26.4253 30.0796 26.3491 29.5304 25.9931 29.1745L23.2719 26.4533L26.4545 23.2707L29.1757 25.9873C29.5317 26.3437 30.0808 26.4199 30.52 26.1744C31.283 25.75 32.093 25.4159 32.9334 25.1798C33.4146 25.0426 33.7475 24.6039 33.75 24.1033V20.25H38.2501V24.1033C38.2501 24.6064 38.5838 25.048 39.0679 25.1852C39.9084 25.4217 40.7179 25.7554 41.4809 26.1797C41.9205 26.4253 42.4693 26.3491 42.8253 25.9931L45.5468 23.2719L48.7294 26.4545L46.0124 29.1757C45.6564 29.5317 45.5802 30.0808 45.8258 30.52C46.2501 31.283 46.5838 32.093 46.8203 32.9334C46.9575 33.4171 47.3996 33.7512 47.9026 33.7512H51.7501V38.251H47.8968C47.3938 38.251 46.9521 38.5851 46.8145 39.0692C46.5785 39.9092 46.2443 40.7192 45.82 41.4822C45.5744 41.9218 45.6507 42.4705 46.007 42.8265L48.7282 45.5481L45.5456 48.7307L42.8244 46.0124C42.4685 45.6564 41.9193 45.5802 41.4797 45.8258C40.7171 46.2501 39.9072 46.5838 39.0667 46.8203C38.583 46.9575 38.2489 47.3996 38.2489 47.9026V51.7501H33.75V47.8968C33.75 47.3938 33.4159 46.9521 32.9322 46.8145C32.0918 46.5785 31.2818 46.2443 30.5192 45.82C30.0796 45.5744 29.5304 45.6507 29.1745 46.007L26.4533 48.7282L23.2707 45.5456L25.9873 42.8244C26.3437 42.4685 26.4199 41.9193 26.1744 41.4797C25.75 40.7171 25.4159 39.9072 25.1798 39.0667C25.0426 38.5851 24.6039 38.2522 24.1033 38.2501H3.375C2.75372 38.2501 2.24986 37.7463 2.24986 37.125V13.5H0V37.125C0 38.9888 1.51117 40.5 3.375 40.5H23.2798C23.4367 40.947 23.6176 41.3858 23.8207 41.8138L20.8845 44.7501C20.4453 45.1897 20.4453 45.9016 20.8845 46.3412L25.6577 51.1144C26.0973 51.5536 26.8092 51.5536 27.2484 51.1144L30.1851 48.1782C30.6135 48.3817 31.0523 48.563 31.5001 48.7204V52.8749C31.5001 53.4961 32.0036 54 32.6249 54H39.3749C39.9961 54 40.5 53.4961 40.5 52.8749V48.7204C40.947 48.563 41.3858 48.3826 41.8138 48.1794L44.7501 51.1157C45.1897 51.5549 45.9016 51.5549 46.3412 51.1157L51.1144 46.342C51.5536 45.9028 51.5536 45.1909 51.1144 44.7513L48.1782 41.8151C48.3817 41.3866 48.563 40.9474 48.7204 40.5H52.8749C53.4961 40.5 54 39.9961 54 39.3749V32.6249C54 32.0036 53.4961 31.5001 52.8749 31.5001V31.5001Z" fill="black"/>
<path d="M5.62488 14.6251H22.4999V16.875H5.62488V14.6251Z" fill="black"/>
<path d="M5.62488 19.1249H22.4999V21.3752H5.62488V19.1249Z" fill="black"/>
<path d="M5.62488 23.625H18.0002V25.8749H5.62488V23.625Z" fill="black"/>
<path d="M5.62488 28.1251H18.0002V30.375H5.62488V28.1251Z" fill="black"/>
<path d="M5.62488 32.6249H15.7499V34.8751H5.62488V32.6249Z" fill="black"/>
<path d="M35.9999 31.5002V29.2499C32.2722 29.2499 29.2499 32.2722 29.2499 35.9999C29.2499 39.728 32.2722 42.7499 35.9999 42.7499C39.728 42.7499 42.7499 39.728 42.7499 35.9999H40.5C40.5 38.4854 38.4854 40.5 35.9999 40.5C33.5148 40.5 31.5002 38.4854 31.5002 35.9999C31.5002 33.5148 33.5148 31.5002 35.9999 31.5002V31.5002Z" fill="black"/>
</g>
<defs>
<clipPath id="clip0_1_796">
<rect width="54" height="54" fill="white"/>
</clipPath>
</defs>
</svg>
