<svg width="52" height="52" viewBox="0 0 52 52" fill="none" xmlns="http://www.w3.org/2000/svg">
<g clip-path="url(#clip0_1_880)">
<path d="M40.0835 16.25C40.0835 15.0535 39.1135 14.0835 37.9166 14.0835H3.25003C2.0535 14.0835 1.0835 15.0535 1.0835 16.25V37.9166H40.0835V16.25Z" fill="#F891A1"/>
<path d="M1.0835 37.9165V42.25C1.0835 43.4465 2.0535 44.4165 3.25003 44.4165H37.9166C39.1135 44.4165 40.0835 43.4465 40.0835 42.25V37.9165H1.0835Z" fill="white"/>
<path d="M27.0835 44.4165V50.9165H14.0835V44.4165H27.0835Z" fill="#F891A1"/>
<path d="M24.9165 17.3335H29.25V26H24.9165V17.3335Z" fill="#F891A1"/>
<path d="M42.25 16.25H46.5835V26H42.25V16.25Z" fill="#F891A1"/>
<path d="M33.5835 11.9165H37.9166V26H33.5835V11.9165Z" fill="#F891A1"/>
<path d="M33.5835 37.9165C33.5835 39.1135 32.6135 40.0835 31.4165 40.0835C30.22 40.0835 29.25 39.1135 29.25 37.9165C29.25 36.72 30.22 35.75 31.4165 35.75C32.6135 35.75 33.5835 36.72 33.5835 37.9165Z" fill="white"/>
<path d="M32.5 6.50003H48.75C49.945 6.5036 50.913 7.47162 50.9166 8.66656V29.25C50.913 30.445 49.945 31.413 48.75 31.4166H22.75C21.5551 31.413 20.5871 30.445 20.5835 29.25V3.25003C20.5871 2.05508 21.5551 1.08707 22.75 1.0835H30.3335C31.5284 1.08707 32.4965 2.05508 32.5 3.25003V6.50003ZM46.5835 26V16.25H42.25V26H46.5835ZM37.9166 26V11.9166H33.5835V26H37.9166ZM29.25 26V17.3335H24.9166V26H29.25Z" fill="white"/>
<path d="M48.75 5.41653H33.5835V3.25C33.5835 1.4552 32.1283 0 30.3335 0H22.75C20.9552 0 19.5 1.4552 19.5 3.25V29.25C19.5 31.0448 20.9552 32.5 22.75 32.5H30.3335V34.8661C29.4158 35.1938 28.6938 35.9158 28.3661 36.8335H4.33347V39H28.3661C28.8184 40.2981 30.0423 41.1677 31.4165 41.1677C32.7912 41.1677 34.0151 40.2981 34.4674 39H39V42.25C39 42.8483 38.5148 43.3335 37.9165 43.3335H3.25C2.65173 43.3335 2.16653 42.8483 2.16653 42.25V16.25C2.16653 15.6517 2.65173 15.1665 3.25 15.1665H17.3335V13H3.25C1.4552 13 0 14.4552 0 16.25V42.25C0 44.0448 1.4552 45.5 3.25 45.5H13V49.8335H10.8335V52H30.3335V49.8335H28.1665V45.5H37.9165C39.7117 45.5 41.1665 44.0448 41.1665 42.25V37.9165C41.1665 37.3183 40.6817 36.8335 40.0835 36.8335H34.4674C34.1397 35.9158 33.4176 35.1938 32.5 34.8661V32.5H48.75C50.5448 32.5 52 31.0448 52 29.25V8.66653C52 6.87173 50.5448 5.41653 48.75 5.41653ZM26 49.8335H15.1665V45.5H26V49.8335ZM31.4165 39C30.8183 39 30.3335 38.5148 30.3335 37.9165C30.3335 37.3183 30.8183 36.8335 31.4165 36.8335C32.0148 36.8335 32.5 37.3183 32.5 37.9165C32.5 38.5148 32.0148 39 31.4165 39ZM49.8335 29.25C49.8335 29.8483 49.3483 30.3335 48.75 30.3335H22.75C22.1517 30.3335 21.6665 29.8483 21.6665 29.25V3.25C21.6665 2.65173 22.1517 2.16653 22.75 2.16653H30.3335C30.9317 2.16653 31.4165 2.65173 31.4165 3.25V5.41653H27.0835V7.58347H48.75C49.3483 7.58347 49.8335 8.06827 49.8335 8.66653V29.25Z" fill="black"/>
<path d="M29.25 16.25H24.9166C24.3183 16.25 23.8335 16.7352 23.8335 17.3335V26C23.8335 26.5983 24.3183 27.0835 24.9166 27.0835H29.25C29.8483 27.0835 30.3335 26.5983 30.3335 26V17.3335C30.3335 16.7352 29.8483 16.25 29.25 16.25ZM28.1666 24.9165H26V18.4165H28.1666V24.9165Z" fill="black"/>
<path d="M37.9165 10.8335H33.5835C32.9852 10.8335 32.5 11.3183 32.5 11.9166V26C32.5 26.5983 32.9852 27.0835 33.5835 27.0835H37.9165C38.5148 27.0835 39 26.5983 39 26V11.9166C39 11.3183 38.5148 10.8335 37.9165 10.8335ZM36.8335 24.9166H34.6665V13H36.8335V24.9166Z" fill="black"/>
<path d="M46.5834 15.1665H42.25C41.6517 15.1665 41.1665 15.6517 41.1665 16.25V26C41.1665 26.5982 41.6517 27.0834 42.25 27.0834H46.5834C47.1817 27.0834 47.6665 26.5982 47.6665 26V16.25C47.6665 15.6517 47.1817 15.1665 46.5834 15.1665ZM45.5 24.9165H43.3334V17.3334H45.5V24.9165Z" fill="black"/>
<path d="M6.50003 20.5835C6.50003 19.9852 6.98523 19.5 7.5835 19.5H9.75003V17.3335H7.5835C5.7883 17.3335 4.3335 18.7883 4.3335 20.5835V22.75H6.50003V20.5835Z" fill="black"/>
<path d="M4.3335 24.9165H6.50003V27.0834H4.3335V24.9165Z" fill="black"/>
</g>
<defs>
<clipPath id="clip0_1_880">
<rect width="52" height="52" fill="white"/>
</clipPath>
</defs>
</svg>
